<?xml version="1.0" encoding="utf-8" standalone="no"?>
<!DOCTYPE svg PUBLIC "-//W3C//DTD SVG 1.1//EN"
  "http://www.w3.org/Graphics/SVG/1.1/DTD/svg11.dtd">
<svg xmlns:xlink="http://www.w3.org/1999/xlink" width="460.8pt" height="345.6pt" viewBox="0 0 460.8 345.6" xmlns="http://www.w3.org/2000/svg" version="1.1">
 <metadata>
  <rdf:RDF xmlns:dc="http://purl.org/dc/elements/1.1/" xmlns:cc="http://creativecommons.org/ns#" xmlns:rdf="http://www.w3.org/1999/02/22-rdf-syntax-ns#">
   <cc:Work>
    <dc:type rdf:resource="http://purl.org/dc/dcmitype/StillImage"/>
    <dc:date>2023-04-15T20:51:11.840405</dc:date>
    <dc:format>image/svg+xml</dc:format>
    <dc:creator>
     <cc:Agent>
      <dc:title>Matplotlib v3.5.1, https://matplotlib.org/</dc:title>
     </cc:Agent>
    </dc:creator>
   </cc:Work>
  </rdf:RDF>
 </metadata>
 <defs>
  <style type="text/css">*{stroke-linejoin: round; stroke-linecap: butt}</style>
 </defs>
 <g id="figure_1">
  <g id="patch_1">
   <path d="M 0 345.6 
L 460.8 345.6 
L 460.8 0 
L 0 0 
z
" style="fill: #ffffff"/>
  </g>
  <g id="axes_1">
   <g id="patch_2">
    <path d="M 57.6 307.584 
L 414.72 307.584 
L 414.72 41.472 
L 57.6 41.472 
z
" style="fill: #ffffff"/>
   </g>
   <g id="matplotlib.axis_1">
    <g id="xtick_1">
     <g id="line2d_1">
      <path d="M 73.507748 307.584 
L 73.507748 41.472 
" clip-path="url(#p10fa2cd63e)" style="fill: none; stroke: #808080; stroke-width: 0.8; stroke-linecap: square"/>
     </g>
     <g id="line2d_2">
      <defs>
       <path id="m48625ff81a" d="M 0 0 
L 0 3.5 
" style="stroke: #000000; stroke-width: 0.8"/>
      </defs>
      <g>
       <use xlink:href="#m48625ff81a" x="73.507748" y="307.584" style="stroke: #000000; stroke-width: 0.8"/>
      </g>
     </g>
     <g id="text_1">
      <!-- 0.0 -->
      <g transform="translate(65.556185 322.182437)scale(0.1 -0.1)">
       <defs>
        <path id="DejaVuSans-30" d="M 2034 4250 
Q 1547 4250 1301 3770 
Q 1056 3291 1056 2328 
Q 1056 1369 1301 889 
Q 1547 409 2034 409 
Q 2525 409 2770 889 
Q 3016 1369 3016 2328 
Q 3016 3291 2770 3770 
Q 2525 4250 2034 4250 
z
M 2034 4750 
Q 2819 4750 3233 4129 
Q 3647 3509 3647 2328 
Q 3647 1150 3233 529 
Q 2819 -91 2034 -91 
Q 1250 -91 836 529 
Q 422 1150 422 2328 
Q 422 3509 836 4129 
Q 1250 4750 2034 4750 
z
" transform="scale(0.015625)"/>
        <path id="DejaVuSans-2e" d="M 684 794 
L 1344 794 
L 1344 0 
L 684 0 
L 684 794 
z
" transform="scale(0.015625)"/>
       </defs>
       <use xlink:href="#DejaVuSans-30"/>
       <use xlink:href="#DejaVuSans-2e" x="63.623047"/>
       <use xlink:href="#DejaVuSans-30" x="95.410156"/>
      </g>
     </g>
    </g>
    <g id="xtick_2">
     <g id="line2d_3">
      <path d="M 138.503653 307.584 
L 138.503653 41.472 
" clip-path="url(#p10fa2cd63e)" style="fill: none; stroke: #808080; stroke-width: 0.8; stroke-linecap: square"/>
     </g>
     <g id="line2d_4">
      <g>
       <use xlink:href="#m48625ff81a" x="138.503653" y="307.584" style="stroke: #000000; stroke-width: 0.8"/>
      </g>
     </g>
     <g id="text_2">
      <!-- 0.2 -->
      <g transform="translate(130.55209 322.182437)scale(0.1 -0.1)">
       <defs>
        <path id="DejaVuSans-32" d="M 1228 531 
L 3431 531 
L 3431 0 
L 469 0 
L 469 531 
Q 828 903 1448 1529 
Q 2069 2156 2228 2338 
Q 2531 2678 2651 2914 
Q 2772 3150 2772 3378 
Q 2772 3750 2511 3984 
Q 2250 4219 1831 4219 
Q 1534 4219 1204 4116 
Q 875 4013 500 3803 
L 500 4441 
Q 881 4594 1212 4672 
Q 1544 4750 1819 4750 
Q 2544 4750 2975 4387 
Q 3406 4025 3406 3419 
Q 3406 3131 3298 2873 
Q 3191 2616 2906 2266 
Q 2828 2175 2409 1742 
Q 1991 1309 1228 531 
z
" transform="scale(0.015625)"/>
       </defs>
       <use xlink:href="#DejaVuSans-30"/>
       <use xlink:href="#DejaVuSans-2e" x="63.623047"/>
       <use xlink:href="#DejaVuSans-32" x="95.410156"/>
      </g>
     </g>
    </g>
    <g id="xtick_3">
     <g id="line2d_5">
      <path d="M 203.499558 307.584 
L 203.499558 41.472 
" clip-path="url(#p10fa2cd63e)" style="fill: none; stroke: #808080; stroke-width: 0.8; stroke-linecap: square"/>
     </g>
     <g id="line2d_6">
      <g>
       <use xlink:href="#m48625ff81a" x="203.499558" y="307.584" style="stroke: #000000; stroke-width: 0.8"/>
      </g>
     </g>
     <g id="text_3">
      <!-- 0.4 -->
      <g transform="translate(195.547995 322.182437)scale(0.1 -0.1)">
       <defs>
        <path id="DejaVuSans-34" d="M 2419 4116 
L 825 1625 
L 2419 1625 
L 2419 4116 
z
M 2253 4666 
L 3047 4666 
L 3047 1625 
L 3713 1625 
L 3713 1100 
L 3047 1100 
L 3047 0 
L 2419 0 
L 2419 1100 
L 313 1100 
L 313 1709 
L 2253 4666 
z
" transform="scale(0.015625)"/>
       </defs>
       <use xlink:href="#DejaVuSans-30"/>
       <use xlink:href="#DejaVuSans-2e" x="63.623047"/>
       <use xlink:href="#DejaVuSans-34" x="95.410156"/>
      </g>
     </g>
    </g>
    <g id="xtick_4">
     <g id="line2d_7">
      <path d="M 268.495463 307.584 
L 268.495463 41.472 
" clip-path="url(#p10fa2cd63e)" style="fill: none; stroke: #808080; stroke-width: 0.8; stroke-linecap: square"/>
     </g>
     <g id="line2d_8">
      <g>
       <use xlink:href="#m48625ff81a" x="268.495463" y="307.584" style="stroke: #000000; stroke-width: 0.8"/>
      </g>
     </g>
     <g id="text_4">
      <!-- 0.6 -->
      <g transform="translate(260.5439 322.182437)scale(0.1 -0.1)">
       <defs>
        <path id="DejaVuSans-36" d="M 2113 2584 
Q 1688 2584 1439 2293 
Q 1191 2003 1191 1497 
Q 1191 994 1439 701 
Q 1688 409 2113 409 
Q 2538 409 2786 701 
Q 3034 994 3034 1497 
Q 3034 2003 2786 2293 
Q 2538 2584 2113 2584 
z
M 3366 4563 
L 3366 3988 
Q 3128 4100 2886 4159 
Q 2644 4219 2406 4219 
Q 1781 4219 1451 3797 
Q 1122 3375 1075 2522 
Q 1259 2794 1537 2939 
Q 1816 3084 2150 3084 
Q 2853 3084 3261 2657 
Q 3669 2231 3669 1497 
Q 3669 778 3244 343 
Q 2819 -91 2113 -91 
Q 1303 -91 875 529 
Q 447 1150 447 2328 
Q 447 3434 972 4092 
Q 1497 4750 2381 4750 
Q 2619 4750 2861 4703 
Q 3103 4656 3366 4563 
z
" transform="scale(0.015625)"/>
       </defs>
       <use xlink:href="#DejaVuSans-30"/>
       <use xlink:href="#DejaVuSans-2e" x="63.623047"/>
       <use xlink:href="#DejaVuSans-36" x="95.410156"/>
      </g>
     </g>
    </g>
    <g id="xtick_5">
     <g id="line2d_9">
      <path d="M 333.491368 307.584 
L 333.491368 41.472 
" clip-path="url(#p10fa2cd63e)" style="fill: none; stroke: #808080; stroke-width: 0.8; stroke-linecap: square"/>
     </g>
     <g id="line2d_10">
      <g>
       <use xlink:href="#m48625ff81a" x="333.491368" y="307.584" style="stroke: #000000; stroke-width: 0.8"/>
      </g>
     </g>
     <g id="text_5">
      <!-- 0.8 -->
      <g transform="translate(325.539805 322.182437)scale(0.1 -0.1)">
       <defs>
        <path id="DejaVuSans-38" d="M 2034 2216 
Q 1584 2216 1326 1975 
Q 1069 1734 1069 1313 
Q 1069 891 1326 650 
Q 1584 409 2034 409 
Q 2484 409 2743 651 
Q 3003 894 3003 1313 
Q 3003 1734 2745 1975 
Q 2488 2216 2034 2216 
z
M 1403 2484 
Q 997 2584 770 2862 
Q 544 3141 544 3541 
Q 544 4100 942 4425 
Q 1341 4750 2034 4750 
Q 2731 4750 3128 4425 
Q 3525 4100 3525 3541 
Q 3525 3141 3298 2862 
Q 3072 2584 2669 2484 
Q 3125 2378 3379 2068 
Q 3634 1759 3634 1313 
Q 3634 634 3220 271 
Q 2806 -91 2034 -91 
Q 1263 -91 848 271 
Q 434 634 434 1313 
Q 434 1759 690 2068 
Q 947 2378 1403 2484 
z
M 1172 3481 
Q 1172 3119 1398 2916 
Q 1625 2713 2034 2713 
Q 2441 2713 2670 2916 
Q 2900 3119 2900 3481 
Q 2900 3844 2670 4047 
Q 2441 4250 2034 4250 
Q 1625 4250 1398 4047 
Q 1172 3844 1172 3481 
z
" transform="scale(0.015625)"/>
       </defs>
       <use xlink:href="#DejaVuSans-30"/>
       <use xlink:href="#DejaVuSans-2e" x="63.623047"/>
       <use xlink:href="#DejaVuSans-38" x="95.410156"/>
      </g>
     </g>
    </g>
    <g id="xtick_6">
     <g id="line2d_11">
      <path d="M 398.487273 307.584 
L 398.487273 41.472 
" clip-path="url(#p10fa2cd63e)" style="fill: none; stroke: #808080; stroke-width: 0.8; stroke-linecap: square"/>
     </g>
     <g id="line2d_12">
      <g>
       <use xlink:href="#m48625ff81a" x="398.487273" y="307.584" style="stroke: #000000; stroke-width: 0.8"/>
      </g>
     </g>
     <g id="text_6">
      <!-- 1.0 -->
      <g transform="translate(390.53571 322.182437)scale(0.1 -0.1)">
       <defs>
        <path id="DejaVuSans-31" d="M 794 531 
L 1825 531 
L 1825 4091 
L 703 3866 
L 703 4441 
L 1819 4666 
L 2450 4666 
L 2450 531 
L 3481 531 
L 3481 0 
L 794 0 
L 794 531 
z
" transform="scale(0.015625)"/>
       </defs>
       <use xlink:href="#DejaVuSans-31"/>
       <use xlink:href="#DejaVuSans-2e" x="63.623047"/>
       <use xlink:href="#DejaVuSans-30" x="95.410156"/>
      </g>
     </g>
    </g>
    <g id="text_7">
     <!-- Number of elements, N -->
     <g transform="translate(177.935 335.860562)scale(0.1 -0.1)">
      <defs>
       <path id="DejaVuSans-4e" d="M 628 4666 
L 1478 4666 
L 3547 763 
L 3547 4666 
L 4159 4666 
L 4159 0 
L 3309 0 
L 1241 3903 
L 1241 0 
L 628 0 
L 628 4666 
z
" transform="scale(0.015625)"/>
       <path id="DejaVuSans-75" d="M 544 1381 
L 544 3500 
L 1119 3500 
L 1119 1403 
Q 1119 906 1312 657 
Q 1506 409 1894 409 
Q 2359 409 2629 706 
Q 2900 1003 2900 1516 
L 2900 3500 
L 3475 3500 
L 3475 0 
L 2900 0 
L 2900 538 
Q 2691 219 2414 64 
Q 2138 -91 1772 -91 
Q 1169 -91 856 284 
Q 544 659 544 1381 
z
M 1991 3584 
L 1991 3584 
z
" transform="scale(0.015625)"/>
       <path id="DejaVuSans-6d" d="M 3328 2828 
Q 3544 3216 3844 3400 
Q 4144 3584 4550 3584 
Q 5097 3584 5394 3201 
Q 5691 2819 5691 2113 
L 5691 0 
L 5113 0 
L 5113 2094 
Q 5113 2597 4934 2840 
Q 4756 3084 4391 3084 
Q 3944 3084 3684 2787 
Q 3425 2491 3425 1978 
L 3425 0 
L 2847 0 
L 2847 2094 
Q 2847 2600 2669 2842 
Q 2491 3084 2119 3084 
Q 1678 3084 1418 2786 
Q 1159 2488 1159 1978 
L 1159 0 
L 581 0 
L 581 3500 
L 1159 3500 
L 1159 2956 
Q 1356 3278 1631 3431 
Q 1906 3584 2284 3584 
Q 2666 3584 2933 3390 
Q 3200 3197 3328 2828 
z
" transform="scale(0.015625)"/>
       <path id="DejaVuSans-62" d="M 3116 1747 
Q 3116 2381 2855 2742 
Q 2594 3103 2138 3103 
Q 1681 3103 1420 2742 
Q 1159 2381 1159 1747 
Q 1159 1113 1420 752 
Q 1681 391 2138 391 
Q 2594 391 2855 752 
Q 3116 1113 3116 1747 
z
M 1159 2969 
Q 1341 3281 1617 3432 
Q 1894 3584 2278 3584 
Q 2916 3584 3314 3078 
Q 3713 2572 3713 1747 
Q 3713 922 3314 415 
Q 2916 -91 2278 -91 
Q 1894 -91 1617 61 
Q 1341 213 1159 525 
L 1159 0 
L 581 0 
L 581 4863 
L 1159 4863 
L 1159 2969 
z
" transform="scale(0.015625)"/>
       <path id="DejaVuSans-65" d="M 3597 1894 
L 3597 1613 
L 953 1613 
Q 991 1019 1311 708 
Q 1631 397 2203 397 
Q 2534 397 2845 478 
Q 3156 559 3463 722 
L 3463 178 
Q 3153 47 2828 -22 
Q 2503 -91 2169 -91 
Q 1331 -91 842 396 
Q 353 884 353 1716 
Q 353 2575 817 3079 
Q 1281 3584 2069 3584 
Q 2775 3584 3186 3129 
Q 3597 2675 3597 1894 
z
M 3022 2063 
Q 3016 2534 2758 2815 
Q 2500 3097 2075 3097 
Q 1594 3097 1305 2825 
Q 1016 2553 972 2059 
L 3022 2063 
z
" transform="scale(0.015625)"/>
       <path id="DejaVuSans-72" d="M 2631 2963 
Q 2534 3019 2420 3045 
Q 2306 3072 2169 3072 
Q 1681 3072 1420 2755 
Q 1159 2438 1159 1844 
L 1159 0 
L 581 0 
L 581 3500 
L 1159 3500 
L 1159 2956 
Q 1341 3275 1631 3429 
Q 1922 3584 2338 3584 
Q 2397 3584 2469 3576 
Q 2541 3569 2628 3553 
L 2631 2963 
z
" transform="scale(0.015625)"/>
       <path id="DejaVuSans-20" transform="scale(0.015625)"/>
       <path id="DejaVuSans-6f" d="M 1959 3097 
Q 1497 3097 1228 2736 
Q 959 2375 959 1747 
Q 959 1119 1226 758 
Q 1494 397 1959 397 
Q 2419 397 2687 759 
Q 2956 1122 2956 1747 
Q 2956 2369 2687 2733 
Q 2419 3097 1959 3097 
z
M 1959 3584 
Q 2709 3584 3137 3096 
Q 3566 2609 3566 1747 
Q 3566 888 3137 398 
Q 2709 -91 1959 -91 
Q 1206 -91 779 398 
Q 353 888 353 1747 
Q 353 2609 779 3096 
Q 1206 3584 1959 3584 
z
" transform="scale(0.015625)"/>
       <path id="DejaVuSans-66" d="M 2375 4863 
L 2375 4384 
L 1825 4384 
Q 1516 4384 1395 4259 
Q 1275 4134 1275 3809 
L 1275 3500 
L 2222 3500 
L 2222 3053 
L 1275 3053 
L 1275 0 
L 697 0 
L 697 3053 
L 147 3053 
L 147 3500 
L 697 3500 
L 697 3744 
Q 697 4328 969 4595 
Q 1241 4863 1831 4863 
L 2375 4863 
z
" transform="scale(0.015625)"/>
       <path id="DejaVuSans-6c" d="M 603 4863 
L 1178 4863 
L 1178 0 
L 603 0 
L 603 4863 
z
" transform="scale(0.015625)"/>
       <path id="DejaVuSans-6e" d="M 3513 2113 
L 3513 0 
L 2938 0 
L 2938 2094 
Q 2938 2591 2744 2837 
Q 2550 3084 2163 3084 
Q 1697 3084 1428 2787 
Q 1159 2491 1159 1978 
L 1159 0 
L 581 0 
L 581 3500 
L 1159 3500 
L 1159 2956 
Q 1366 3272 1645 3428 
Q 1925 3584 2291 3584 
Q 2894 3584 3203 3211 
Q 3513 2838 3513 2113 
z
" transform="scale(0.015625)"/>
       <path id="DejaVuSans-74" d="M 1172 4494 
L 1172 3500 
L 2356 3500 
L 2356 3053 
L 1172 3053 
L 1172 1153 
Q 1172 725 1289 603 
Q 1406 481 1766 481 
L 2356 481 
L 2356 0 
L 1766 0 
Q 1100 0 847 248 
Q 594 497 594 1153 
L 594 3053 
L 172 3053 
L 172 3500 
L 594 3500 
L 594 4494 
L 1172 4494 
z
" transform="scale(0.015625)"/>
       <path id="DejaVuSans-73" d="M 2834 3397 
L 2834 2853 
Q 2591 2978 2328 3040 
Q 2066 3103 1784 3103 
Q 1356 3103 1142 2972 
Q 928 2841 928 2578 
Q 928 2378 1081 2264 
Q 1234 2150 1697 2047 
L 1894 2003 
Q 2506 1872 2764 1633 
Q 3022 1394 3022 966 
Q 3022 478 2636 193 
Q 2250 -91 1575 -91 
Q 1294 -91 989 -36 
Q 684 19 347 128 
L 347 722 
Q 666 556 975 473 
Q 1284 391 1588 391 
Q 1994 391 2212 530 
Q 2431 669 2431 922 
Q 2431 1156 2273 1281 
Q 2116 1406 1581 1522 
L 1381 1569 
Q 847 1681 609 1914 
Q 372 2147 372 2553 
Q 372 3047 722 3315 
Q 1072 3584 1716 3584 
Q 2034 3584 2315 3537 
Q 2597 3491 2834 3397 
z
" transform="scale(0.015625)"/>
       <path id="DejaVuSans-2c" d="M 750 794 
L 1409 794 
L 1409 256 
L 897 -744 
L 494 -744 
L 750 256 
L 750 794 
z
" transform="scale(0.015625)"/>
      </defs>
      <use xlink:href="#DejaVuSans-4e"/>
      <use xlink:href="#DejaVuSans-75" x="74.804688"/>
      <use xlink:href="#DejaVuSans-6d" x="138.183594"/>
      <use xlink:href="#DejaVuSans-62" x="235.595703"/>
      <use xlink:href="#DejaVuSans-65" x="299.072266"/>
      <use xlink:href="#DejaVuSans-72" x="360.595703"/>
      <use xlink:href="#DejaVuSans-20" x="401.708984"/>
      <use xlink:href="#DejaVuSans-6f" x="433.496094"/>
      <use xlink:href="#DejaVuSans-66" x="494.677734"/>
      <use xlink:href="#DejaVuSans-20" x="529.882812"/>
      <use xlink:href="#DejaVuSans-65" x="561.669922"/>
      <use xlink:href="#DejaVuSans-6c" x="623.193359"/>
      <use xlink:href="#DejaVuSans-65" x="650.976562"/>
      <use xlink:href="#DejaVuSans-6d" x="712.5"/>
      <use xlink:href="#DejaVuSans-65" x="809.912109"/>
      <use xlink:href="#DejaVuSans-6e" x="871.435547"/>
      <use xlink:href="#DejaVuSans-74" x="934.814453"/>
      <use xlink:href="#DejaVuSans-73" x="974.023438"/>
      <use xlink:href="#DejaVuSans-2c" x="1026.123047"/>
      <use xlink:href="#DejaVuSans-20" x="1057.910156"/>
      <use xlink:href="#DejaVuSans-4e" x="1089.697266"/>
     </g>
    </g>
    <g id="text_8">
     <!-- 1e6 -->
     <g transform="translate(395.841875 334.860562)scale(0.1 -0.1)">
      <use xlink:href="#DejaVuSans-31"/>
      <use xlink:href="#DejaVuSans-65" x="63.623047"/>
      <use xlink:href="#DejaVuSans-36" x="125.146484"/>
     </g>
    </g>
   </g>
   <g id="matplotlib.axis_2">
    <g id="ytick_1">
     <g id="line2d_13">
      <path d="M 57.6 295.488 
L 414.72 295.488 
" clip-path="url(#p10fa2cd63e)" style="fill: none; stroke: #808080; stroke-width: 0.8; stroke-linecap: square"/>
     </g>
     <g id="line2d_14">
      <defs>
       <path id="m8892b63b77" d="M 0 0 
L -3.5 0 
" style="stroke: #000000; stroke-width: 0.8"/>
      </defs>
      <g>
       <use xlink:href="#m8892b63b77" x="57.6" y="295.488" style="stroke: #000000; stroke-width: 0.8"/>
      </g>
     </g>
     <g id="text_9">
      <!-- 0 -->
      <g transform="translate(44.2375 299.287219)scale(0.1 -0.1)">
       <use xlink:href="#DejaVuSans-30"/>
      </g>
     </g>
    </g>
    <g id="ytick_2">
     <g id="line2d_15">
      <path d="M 57.6 257.922783 
L 414.72 257.922783 
" clip-path="url(#p10fa2cd63e)" style="fill: none; stroke: #808080; stroke-width: 0.8; stroke-linecap: square"/>
     </g>
     <g id="line2d_16">
      <g>
       <use xlink:href="#m8892b63b77" x="57.6" y="257.922783" style="stroke: #000000; stroke-width: 0.8"/>
      </g>
     </g>
     <g id="text_10">
      <!-- 100 -->
      <g transform="translate(31.5125 261.722001)scale(0.1 -0.1)">
       <use xlink:href="#DejaVuSans-31"/>
       <use xlink:href="#DejaVuSans-30" x="63.623047"/>
       <use xlink:href="#DejaVuSans-30" x="127.246094"/>
      </g>
     </g>
    </g>
    <g id="ytick_3">
     <g id="line2d_17">
      <path d="M 57.6 220.357565 
L 414.72 220.357565 
" clip-path="url(#p10fa2cd63e)" style="fill: none; stroke: #808080; stroke-width: 0.8; stroke-linecap: square"/>
     </g>
     <g id="line2d_18">
      <g>
       <use xlink:href="#m8892b63b77" x="57.6" y="220.357565" style="stroke: #000000; stroke-width: 0.8"/>
      </g>
     </g>
     <g id="text_11">
      <!-- 200 -->
      <g transform="translate(31.5125 224.156784)scale(0.1 -0.1)">
       <use xlink:href="#DejaVuSans-32"/>
       <use xlink:href="#DejaVuSans-30" x="63.623047"/>
       <use xlink:href="#DejaVuSans-30" x="127.246094"/>
      </g>
     </g>
    </g>
    <g id="ytick_4">
     <g id="line2d_19">
      <path d="M 57.6 182.792348 
L 414.72 182.792348 
" clip-path="url(#p10fa2cd63e)" style="fill: none; stroke: #808080; stroke-width: 0.8; stroke-linecap: square"/>
     </g>
     <g id="line2d_20">
      <g>
       <use xlink:href="#m8892b63b77" x="57.6" y="182.792348" style="stroke: #000000; stroke-width: 0.8"/>
      </g>
     </g>
     <g id="text_12">
      <!-- 300 -->
      <g transform="translate(31.5125 186.591567)scale(0.1 -0.1)">
       <defs>
        <path id="DejaVuSans-33" d="M 2597 2516 
Q 3050 2419 3304 2112 
Q 3559 1806 3559 1356 
Q 3559 666 3084 287 
Q 2609 -91 1734 -91 
Q 1441 -91 1130 -33 
Q 819 25 488 141 
L 488 750 
Q 750 597 1062 519 
Q 1375 441 1716 441 
Q 2309 441 2620 675 
Q 2931 909 2931 1356 
Q 2931 1769 2642 2001 
Q 2353 2234 1838 2234 
L 1294 2234 
L 1294 2753 
L 1863 2753 
Q 2328 2753 2575 2939 
Q 2822 3125 2822 3475 
Q 2822 3834 2567 4026 
Q 2313 4219 1838 4219 
Q 1578 4219 1281 4162 
Q 984 4106 628 3988 
L 628 4550 
Q 988 4650 1302 4700 
Q 1616 4750 1894 4750 
Q 2613 4750 3031 4423 
Q 3450 4097 3450 3541 
Q 3450 3153 3228 2886 
Q 3006 2619 2597 2516 
z
" transform="scale(0.015625)"/>
       </defs>
       <use xlink:href="#DejaVuSans-33"/>
       <use xlink:href="#DejaVuSans-30" x="63.623047"/>
       <use xlink:href="#DejaVuSans-30" x="127.246094"/>
      </g>
     </g>
    </g>
    <g id="ytick_5">
     <g id="line2d_21">
      <path d="M 57.6 145.22713 
L 414.72 145.22713 
" clip-path="url(#p10fa2cd63e)" style="fill: none; stroke: #808080; stroke-width: 0.8; stroke-linecap: square"/>
     </g>
     <g id="line2d_22">
      <g>
       <use xlink:href="#m8892b63b77" x="57.6" y="145.22713" style="stroke: #000000; stroke-width: 0.8"/>
      </g>
     </g>
     <g id="text_13">
      <!-- 400 -->
      <g transform="translate(31.5125 149.026349)scale(0.1 -0.1)">
       <use xlink:href="#DejaVuSans-34"/>
       <use xlink:href="#DejaVuSans-30" x="63.623047"/>
       <use xlink:href="#DejaVuSans-30" x="127.246094"/>
      </g>
     </g>
    </g>
    <g id="ytick_6">
     <g id="line2d_23">
      <path d="M 57.6 107.661913 
L 414.72 107.661913 
" clip-path="url(#p10fa2cd63e)" style="fill: none; stroke: #808080; stroke-width: 0.8; stroke-linecap: square"/>
     </g>
     <g id="line2d_24">
      <g>
       <use xlink:href="#m8892b63b77" x="57.6" y="107.661913" style="stroke: #000000; stroke-width: 0.8"/>
      </g>
     </g>
     <g id="text_14">
      <!-- 500 -->
      <g transform="translate(31.5125 111.461132)scale(0.1 -0.1)">
       <defs>
        <path id="DejaVuSans-35" d="M 691 4666 
L 3169 4666 
L 3169 4134 
L 1269 4134 
L 1269 2991 
Q 1406 3038 1543 3061 
Q 1681 3084 1819 3084 
Q 2600 3084 3056 2656 
Q 3513 2228 3513 1497 
Q 3513 744 3044 326 
Q 2575 -91 1722 -91 
Q 1428 -91 1123 -41 
Q 819 9 494 109 
L 494 744 
Q 775 591 1075 516 
Q 1375 441 1709 441 
Q 2250 441 2565 725 
Q 2881 1009 2881 1497 
Q 2881 1984 2565 2268 
Q 2250 2553 1709 2553 
Q 1456 2553 1204 2497 
Q 953 2441 691 2322 
L 691 4666 
z
" transform="scale(0.015625)"/>
       </defs>
       <use xlink:href="#DejaVuSans-35"/>
       <use xlink:href="#DejaVuSans-30" x="63.623047"/>
       <use xlink:href="#DejaVuSans-30" x="127.246094"/>
      </g>
     </g>
    </g>
    <g id="ytick_7">
     <g id="line2d_25">
      <path d="M 57.6 70.096696 
L 414.72 70.096696 
" clip-path="url(#p10fa2cd63e)" style="fill: none; stroke: #808080; stroke-width: 0.8; stroke-linecap: square"/>
     </g>
     <g id="line2d_26">
      <g>
       <use xlink:href="#m8892b63b77" x="57.6" y="70.096696" style="stroke: #000000; stroke-width: 0.8"/>
      </g>
     </g>
     <g id="text_15">
      <!-- 600 -->
      <g transform="translate(31.5125 73.895914)scale(0.1 -0.1)">
       <use xlink:href="#DejaVuSans-36"/>
       <use xlink:href="#DejaVuSans-30" x="63.623047"/>
       <use xlink:href="#DejaVuSans-30" x="127.246094"/>
      </g>
     </g>
    </g>
    <g id="text_16">
     <!-- Time, ms -->
     <g transform="translate(25.432812 197.414719)rotate(-90)scale(0.1 -0.1)">
      <defs>
       <path id="DejaVuSans-54" d="M -19 4666 
L 3928 4666 
L 3928 4134 
L 2272 4134 
L 2272 0 
L 1638 0 
L 1638 4134 
L -19 4134 
L -19 4666 
z
" transform="scale(0.015625)"/>
       <path id="DejaVuSans-69" d="M 603 3500 
L 1178 3500 
L 1178 0 
L 603 0 
L 603 3500 
z
M 603 4863 
L 1178 4863 
L 1178 4134 
L 603 4134 
L 603 4863 
z
" transform="scale(0.015625)"/>
      </defs>
      <use xlink:href="#DejaVuSans-54"/>
      <use xlink:href="#DejaVuSans-69" x="57.958984"/>
      <use xlink:href="#DejaVuSans-6d" x="85.742188"/>
      <use xlink:href="#DejaVuSans-65" x="183.154297"/>
      <use xlink:href="#DejaVuSans-2c" x="244.677734"/>
      <use xlink:href="#DejaVuSans-20" x="276.464844"/>
      <use xlink:href="#DejaVuSans-6d" x="308.251953"/>
      <use xlink:href="#DejaVuSans-73" x="405.664062"/>
     </g>
    </g>
   </g>
   <g id="line2d_27">
    <path d="M 73.832727 295.488 
L 74.157707 295.488 
L 74.482686 295.112348 
L 75.782604 295.112348 
L 76.107584 294.736696 
L 77.407502 294.736696 
L 77.732482 294.361043 
L 78.70742 294.361043 
L 79.0324 293.985391 
L 79.682359 293.985391 
L 80.007338 293.609739 
L 80.982277 293.609739 
L 81.632236 292.858435 
L 81.957215 292.858435 
L 82.282195 293.234087 
L 82.607174 292.858435 
L 83.257133 292.858435 
L 83.582113 292.482783 
L 84.232072 292.482783 
L 84.557052 292.10713 
L 84.882031 291.355826 
L 85.207011 283.091478 
L 85.53199 271.821913 
L 85.85697 287.974957 
L 86.181949 284.218435 
L 86.506929 238.013217 
L 86.831908 286.848 
L 87.156888 286.848 
L 87.806847 290.604522 
L 88.131826 290.22887 
L 88.456806 289.101913 
L 88.781785 288.726261 
L 89.756724 289.853217 
L 90.406683 289.853217 
L 90.731663 290.22887 
L 91.706601 290.22887 
L 92.031581 289.853217 
L 92.68154 289.853217 
L 93.006519 289.477565 
L 93.331499 289.477565 
L 93.656478 288.726261 
L 93.981458 288.350609 
L 94.306437 288.726261 
L 94.956396 288.726261 
L 95.281376 289.101913 
L 95.606355 288.726261 
L 95.931335 289.101913 
L 96.256314 288.726261 
L 96.581294 288.726261 
L 96.906274 286.472348 
L 97.231253 288.350609 
L 97.556233 288.350609 
L 97.881212 287.974957 
L 98.206192 287.974957 
L 98.531171 287.599304 
L 98.856151 287.974957 
L 99.18113 287.974957 
L 99.50611 286.848 
L 99.831089 286.848 
L 100.156069 287.223652 
L 101.131007 287.223652 
L 101.455987 286.848 
L 102.430925 286.848 
L 102.755905 286.472348 
L 103.405864 286.472348 
L 103.730844 286.096696 
L 104.380803 286.096696 
L 104.705782 285.721043 
L 106.0057 285.721043 
L 106.33068 284.969739 
L 106.655659 285.345391 
L 107.630598 285.345391 
L 107.955577 284.969739 
L 108.280557 284.969739 
L 108.605536 284.594087 
L 108.930516 284.969739 
L 109.580475 281.58887 
L 110.230434 284.218435 
L 110.555414 283.842783 
L 110.880393 283.842783 
L 111.205373 265.811478 
L 111.530352 258.298435 
L 111.855332 274.451478 
L 112.180311 272.94887 
L 112.505291 280.837565 
L 112.83027 280.461913 
L 113.15525 271.821913 
L 113.480229 283.091478 
L 113.805209 282.340174 
L 114.130188 282.340174 
L 114.455168 281.964522 
L 114.780147 282.340174 
L 115.105127 282.340174 
L 115.430106 282.715826 
L 115.755086 282.340174 
L 116.080066 282.340174 
L 116.405045 281.964522 
L 117.055004 281.964522 
L 117.379984 281.213217 
L 117.704963 281.58887 
L 118.354922 281.58887 
L 118.679902 280.837565 
L 119.004881 280.837565 
L 119.329861 280.461913 
L 119.65484 280.837565 
L 119.97982 280.086261 
L 120.304799 269.943652 
L 120.629779 278.208 
L 120.954758 247.02887 
L 121.929697 280.837565 
L 122.254676 267.689739 
L 122.579656 267.689739 
L 122.904636 277.081043 
L 123.229615 280.461913 
L 123.554595 279.334957 
L 123.879574 280.086261 
L 124.204554 280.086261 
L 124.529533 279.710609 
L 124.854513 278.959304 
L 125.179492 279.334957 
L 125.504472 279.334957 
L 125.829451 272.197565 
L 126.154431 278.959304 
L 126.47941 278.959304 
L 126.80439 278.208 
L 127.129369 278.583652 
L 127.779328 278.583652 
L 128.429287 275.954087 
L 128.754267 278.208 
L 129.079247 277.832348 
L 129.404226 278.208 
L 129.729206 277.832348 
L 130.054185 278.208 
L 130.379165 270.319304 
L 130.704144 275.954087 
L 131.029124 277.456696 
L 131.354103 277.456696 
L 131.679083 275.954087 
L 132.004062 272.573217 
L 132.329042 276.329739 
L 132.654021 276.705391 
L 132.979001 276.705391 
L 133.30398 270.319304 
L 133.62896 276.329739 
L 133.953939 276.705391 
L 134.278919 275.202783 
L 134.603898 276.705391 
L 134.928878 272.197565 
L 135.253857 275.954087 
L 135.578837 275.954087 
L 135.903817 275.578435 
L 136.228796 275.578435 
L 136.553776 269.943652 
L 136.878755 275.202783 
L 137.203735 268.816696 
L 137.528714 275.578435 
L 137.853694 275.202783 
L 138.178673 275.202783 
L 138.503653 270.319304 
L 138.828632 275.202783 
L 139.153612 274.075826 
L 139.478591 269.568 
L 139.803571 269.568 
L 140.12855 268.441043 
L 140.45353 274.451478 
L 140.778509 274.075826 
L 141.103489 274.451478 
L 141.428468 274.075826 
L 141.753448 269.568 
L 142.078428 274.075826 
L 142.403407 273.700174 
L 142.728387 273.700174 
L 143.053366 273.324522 
L 143.378346 267.689739 
L 143.703325 272.94887 
L 144.028305 273.324522 
L 144.353284 272.94887 
L 144.678264 266.18713 
L 145.003243 272.94887 
L 145.328223 272.573217 
L 145.653202 272.94887 
L 146.303161 272.197565 
L 146.628141 272.573217 
L 146.95312 272.197565 
L 147.603079 272.197565 
L 147.928059 271.821913 
L 148.253038 241.018435 
L 148.578018 272.197565 
L 149.227977 228.246261 
L 149.552957 252.663652 
L 149.877936 267.314087 
L 150.202916 269.568 
L 150.527895 270.319304 
L 150.852875 270.694957 
L 151.177854 263.933217 
L 151.502834 260.552348 
L 151.827813 266.562783 
L 152.152793 266.938435 
L 152.477772 218.479304 
L 152.802752 265.060174 
L 153.127731 268.065391 
L 153.452711 268.816696 
L 153.77769 269.192348 
L 154.10267 266.18713 
L 154.427649 264.684522 
L 154.752629 269.943652 
L 155.077609 269.568 
L 155.402588 269.568 
L 155.727568 268.816696 
L 156.052547 269.192348 
L 156.702506 269.192348 
L 157.027486 268.065391 
L 157.352465 268.816696 
L 157.677445 269.192348 
L 158.002424 268.441043 
L 158.327404 268.065391 
L 158.652383 268.441043 
L 159.627322 268.441043 
L 160.60226 267.314087 
L 160.92724 267.314087 
L 161.252219 267.689739 
L 161.577199 267.314087 
L 161.902179 266.562783 
L 162.227158 267.314087 
L 162.552138 266.938435 
L 162.877117 266.938435 
L 163.202097 266.562783 
L 163.527076 266.938435 
L 163.852056 266.938435 
L 164.502015 266.18713 
L 164.826994 266.562783 
L 165.151974 266.562783 
L 165.476953 265.811478 
L 165.801933 266.18713 
L 166.126912 265.811478 
L 166.451892 265.811478 
L 166.776871 265.435826 
L 167.101851 265.811478 
L 167.75181 265.060174 
L 168.07679 265.435826 
L 168.401769 265.060174 
L 169.051728 265.060174 
L 169.376708 265.435826 
L 169.701687 265.060174 
L 170.026667 263.933217 
L 170.351646 264.30887 
L 171.326585 264.30887 
L 171.651564 263.933217 
L 171.976544 263.933217 
L 172.301523 263.557565 
L 172.626503 263.933217 
L 173.276462 263.181913 
L 173.601441 263.557565 
L 173.926421 263.557565 
L 174.2514 263.181913 
L 174.57638 263.181913 
L 174.90136 263.557565 
L 175.226339 263.181913 
L 175.551319 262.430609 
L 176.201278 262.430609 
L 176.526257 262.054957 
L 177.176216 262.054957 
L 177.501196 261.679304 
L 177.826175 262.054957 
L 178.151155 262.054957 
L 178.476134 261.679304 
L 179.126093 261.679304 
L 179.451073 259.425391 
L 179.776052 261.303652 
L 180.101032 261.679304 
L 180.750991 260.928 
L 181.075971 260.928 
L 181.40095 260.552348 
L 181.72593 260.928 
L 182.050909 260.928 
L 182.375889 260.176696 
L 182.700868 260.552348 
L 183.025848 260.552348 
L 183.350827 260.176696 
L 184.325766 260.176696 
L 184.650745 259.801043 
L 184.975725 259.801043 
L 185.300704 259.425391 
L 185.625684 259.801043 
L 186.275643 259.049739 
L 186.600622 259.425391 
L 186.925602 259.425391 
L 187.250581 258.674087 
L 187.575561 259.049739 
L 187.900541 259.049739 
L 188.22552 258.298435 
L 188.5505 259.049739 
L 188.875479 258.298435 
L 189.200459 258.298435 
L 189.525438 258.674087 
L 190.175397 257.922783 
L 190.500377 257.922783 
L 190.825356 257.54713 
L 191.475315 257.54713 
L 191.800295 256.795826 
L 192.125274 257.922783 
L 192.450254 257.171478 
L 192.775233 256.795826 
L 193.100213 257.171478 
L 193.750172 257.171478 
L 194.400131 256.420174 
L 195.05009 256.420174 
L 195.37507 256.044522 
L 196.674988 256.044522 
L 196.999967 255.66887 
L 197.324947 255.66887 
L 197.649926 254.917565 
L 197.974906 255.66887 
L 198.299885 255.66887 
L 198.624865 254.166261 
L 198.949844 255.293217 
L 199.274824 255.66887 
L 199.599803 254.166261 
L 199.924783 254.917565 
L 200.249762 253.790609 
L 200.574742 254.917565 
L 200.899722 254.541913 
L 201.224701 253.790609 
L 201.549681 254.541913 
L 201.87466 254.166261 
L 202.19964 254.166261 
L 202.849599 253.414957 
L 203.174578 253.790609 
L 203.499558 253.414957 
L 203.824537 253.790609 
L 204.149517 253.039304 
L 204.474496 252.663652 
L 204.799476 253.039304 
L 205.774414 253.039304 
L 206.099394 252.663652 
L 207.074333 252.663652 
L 207.399312 248.155826 
L 207.724292 251.912348 
L 208.049271 247.404522 
L 208.374251 207.585391 
L 208.69923 250.409739 
L 209.02421 248.531478 
L 209.349189 247.780174 
L 209.674169 216.601043 
L 209.999148 250.785391 
L 210.324128 248.155826 
L 210.649107 251.161043 
L 210.974087 251.161043 
L 211.299066 246.277565 
L 211.624046 249.658435 
L 211.949025 249.658435 
L 212.274005 246.277565 
L 212.598984 249.282783 
L 212.923964 249.658435 
L 213.248943 250.785391 
L 213.573923 239.891478 
L 213.898903 250.409739 
L 214.223882 250.034087 
L 214.548862 250.034087 
L 214.873841 249.282783 
L 215.198821 246.653217 
L 215.5238 246.653217 
L 215.84878 195.18887 
L 216.173759 249.282783 
L 216.498739 241.769739 
L 216.823718 240.642783 
L 217.148698 248.155826 
L 217.473677 243.648 
L 217.798657 243.272348 
L 218.123636 248.90713 
L 218.448616 232.378435 
L 218.773595 248.90713 
L 219.098575 246.277565 
L 219.423554 248.531478 
L 219.748534 246.653217 
L 220.073514 235.383652 
L 220.398493 242.896696 
L 220.723473 247.780174 
L 221.048452 248.155826 
L 221.698411 238.764522 
L 222.023391 243.272348 
L 222.34837 243.648 
L 222.67335 241.018435 
L 222.998329 247.404522 
L 223.323309 243.648 
L 223.648288 247.404522 
L 223.973268 246.277565 
L 224.298247 239.140174 
L 224.623227 246.277565 
L 224.948206 241.769739 
L 225.273186 246.277565 
L 225.598165 224.865391 
L 225.923145 246.653217 
L 226.248124 246.277565 
L 226.573104 245.526261 
L 226.898084 245.526261 
L 227.223063 242.521043 
L 227.548043 246.277565 
L 227.873022 244.399304 
L 228.198002 245.901913 
L 228.522981 245.150609 
L 228.847961 245.526261 
L 229.17294 245.150609 
L 229.49792 245.526261 
L 229.822899 244.023652 
L 230.147879 244.774957 
L 230.472858 243.272348 
L 230.797838 244.774957 
L 231.122817 235.759304 
L 231.447797 242.521043 
L 231.772776 225.616696 
L 232.097756 241.769739 
L 232.422735 219.981913 
L 232.747715 244.774957 
L 233.072695 244.023652 
L 233.397674 244.023652 
L 233.722654 242.896696 
L 234.047633 244.023652 
L 234.697592 244.023652 
L 235.347551 243.272348 
L 236.32249 243.272348 
L 236.647469 237.637565 
L 236.972449 237.261913 
L 237.297428 235.383652 
L 237.622408 238.764522 
L 237.947387 234.632348 
L 238.272367 233.505391 
L 238.922326 236.134957 
L 239.247305 231.62713 
L 239.572285 121.185391 
L 239.897265 198.945391 
L 240.222244 188.802783 
L 240.547224 203.82887 
L 240.872203 238.764522 
L 241.197183 227.870609 
L 241.522162 237.261913 
L 241.847142 233.881043 
L 242.172121 219.981913 
L 242.497101 228.246261 
L 242.82208 179.035826 
L 243.14706 225.241043 
L 243.472039 239.140174 
L 243.797019 240.26713 
L 244.446978 239.515826 
L 244.771957 223.738435 
L 245.096937 238.013217 
L 245.421916 226.368 
L 245.746896 239.515826 
L 246.071876 235.383652 
L 246.396855 235.759304 
L 246.721835 231.251478 
L 247.046814 222.611478 
L 247.371794 233.129739 
L 247.696773 236.510609 
L 248.021753 215.849739 
L 248.346732 230.500174 
L 248.996691 235.759304 
L 249.321671 229.373217 
L 249.64665 237.261913 
L 249.97163 235.759304 
L 250.296609 225.616696 
L 250.621589 236.886261 
L 251.271548 223.738435 
L 251.596527 224.114087 
L 251.921507 230.875826 
L 252.246486 213.971478 
L 252.571466 237.637565 
L 252.896446 236.510609 
L 253.221425 236.134957 
L 253.546405 236.886261 
L 254.196364 227.119304 
L 254.521343 231.62713 
L 254.846323 224.489739 
L 255.171302 233.881043 
L 255.496282 236.510609 
L 255.821261 236.510609 
L 256.146241 236.134957 
L 256.47122 235.383652 
L 256.7962 236.134957 
L 257.121179 236.510609 
L 257.446159 236.134957 
L 258.096118 236.134957 
L 258.421097 235.759304 
L 258.746077 235.759304 
L 259.071057 234.632348 
L 259.396036 235.383652 
L 259.721016 235.008 
L 260.045995 235.008 
L 260.370975 231.251478 
L 260.695954 232.378435 
L 261.020934 235.008 
L 261.345913 234.256696 
L 261.995872 235.008 
L 262.320852 234.256696 
L 262.645831 234.632348 
L 262.970811 233.505391 
L 263.29579 233.881043 
L 263.62077 233.881043 
L 263.945749 233.505391 
L 264.270729 234.256696 
L 264.595708 233.505391 
L 264.920688 233.129739 
L 265.245667 233.881043 
L 265.570647 233.129739 
L 265.895627 232.754087 
L 266.220606 233.129739 
L 266.545586 232.754087 
L 266.870565 233.129739 
L 267.195545 232.754087 
L 267.845504 232.754087 
L 268.170483 232.378435 
L 268.495463 232.378435 
L 268.820442 232.002783 
L 269.145422 232.378435 
L 269.470401 232.378435 
L 269.795381 232.002783 
L 270.12036 229.373217 
L 270.44534 232.002783 
L 270.770319 231.62713 
L 271.095299 230.875826 
L 271.745258 231.62713 
L 272.070238 231.251478 
L 272.720197 231.251478 
L 273.045176 230.875826 
L 274.020115 230.875826 
L 274.670074 230.124522 
L 275.320033 230.124522 
L 275.645012 229.74887 
L 275.969992 230.124522 
L 276.294971 229.74887 
L 277.26991 229.74887 
L 277.594889 229.373217 
L 277.919869 229.373217 
L 278.569828 228.621913 
L 278.894808 228.621913 
L 279.219787 229.373217 
L 279.544767 228.621913 
L 280.844685 228.621913 
L 281.494644 227.870609 
L 282.469582 227.870609 
L 283.119541 227.119304 
L 283.444521 227.494957 
L 283.7695 227.494957 
L 284.09448 227.119304 
L 284.419459 227.494957 
L 284.744439 226.743652 
L 285.069419 227.119304 
L 285.394398 227.119304 
L 285.719378 226.368 
L 286.044357 226.743652 
L 286.694316 226.743652 
L 287.019296 226.368 
L 287.344275 226.368 
L 287.669255 225.992348 
L 287.994234 225.992348 
L 288.319214 225.616696 
L 288.644193 225.992348 
L 288.969173 225.616696 
L 289.944111 225.616696 
L 290.269091 225.241043 
L 291.244029 225.241043 
L 291.569009 224.865391 
L 291.893989 224.865391 
L 292.218968 224.114087 
L 292.543948 224.489739 
L 293.193907 224.489739 
L 293.518886 224.114087 
L 293.843866 224.114087 
L 294.168845 223.738435 
L 294.493825 224.114087 
L 294.818804 224.114087 
L 295.143784 223.362783 
L 297.093661 223.362783 
L 297.41864 222.235826 
L 297.74362 223.362783 
L 298.0686 222.611478 
L 298.393579 222.98713 
L 298.718559 222.611478 
L 299.368518 222.611478 
L 299.693497 222.235826 
L 300.018477 222.611478 
L 300.343456 222.611478 
L 300.668436 221.860174 
L 300.993415 221.484522 
L 301.318395 222.235826 
L 301.643374 221.860174 
L 301.968354 221.860174 
L 302.293333 221.484522 
L 303.268272 221.484522 
L 303.593251 220.733217 
L 303.918231 221.10887 
L 304.56819 221.10887 
L 305.218149 220.357565 
L 305.543129 220.357565 
L 305.868108 219.981913 
L 306.193088 219.981913 
L 306.518067 220.357565 
L 306.843047 219.606261 
L 307.168026 219.606261 
L 307.493006 219.981913 
L 307.817985 219.606261 
L 308.467944 219.606261 
L 308.792924 219.230609 
L 309.117903 219.230609 
L 309.442883 218.854957 
L 309.767862 219.230609 
L 310.092842 219.230609 
L 310.417821 218.479304 
L 310.742801 218.479304 
L 311.067781 218.854957 
L 311.39276 218.479304 
L 311.71774 218.479304 
L 312.042719 218.103652 
L 312.692678 218.103652 
L 313.017658 217.728 
L 313.667617 217.728 
L 313.992596 217.352348 
L 314.317576 217.352348 
L 314.642555 217.728 
L 314.967535 216.976696 
L 315.292514 217.352348 
L 315.617494 217.352348 
L 315.942473 216.976696 
L 316.267453 216.225391 
L 316.592432 216.976696 
L 316.917412 216.225391 
L 317.242391 215.849739 
L 317.567371 216.601043 
L 317.892351 216.225391 
L 318.21733 215.474087 
L 318.54231 215.849739 
L 319.517248 215.849739 
L 319.842228 215.098435 
L 320.167207 215.474087 
L 320.492187 215.098435 
L 320.817166 205.70713 
L 321.142146 215.474087 
L 321.467125 215.474087 
L 321.792105 215.098435 
L 322.442064 215.098435 
L 322.767043 214.722783 
L 323.741982 214.722783 
L 324.066962 213.595826 
L 324.391941 214.34713 
L 324.716921 213.971478 
L 325.36688 213.971478 
L 325.691859 213.595826 
L 326.666798 213.595826 
L 327.316757 212.844522 
L 327.641736 213.220174 
L 327.966716 212.844522 
L 328.291695 212.844522 
L 328.616675 212.46887 
L 328.941654 212.844522 
L 329.266634 212.093217 
L 329.591613 212.46887 
L 330.241572 212.46887 
L 330.566552 212.093217 
L 330.891532 211.341913 
L 331.216511 211.717565 
L 331.541491 211.717565 
L 331.86647 211.341913 
L 332.19145 211.717565 
L 332.841409 210.966261 
L 333.166388 211.341913 
L 333.491368 211.341913 
L 334.141327 210.590609 
L 334.466306 211.341913 
L 335.116265 210.590609 
L 335.441245 210.966261 
L 336.091204 210.214957 
L 336.416183 210.590609 
L 336.741163 210.214957 
L 337.391122 210.214957 
L 338.041081 209.463652 
L 339.01602 209.463652 
L 339.340999 209.088 
L 339.665979 209.088 
L 339.990958 208.336696 
L 340.315938 209.088 
L 340.640917 208.712348 
L 341.290876 208.712348 
L 341.615856 209.088 
L 341.940835 208.336696 
L 343.240753 208.336696 
L 343.890713 207.585391 
L 344.215692 207.585391 
L 344.865651 206.834087 
L 345.190631 207.585391 
L 345.51561 206.834087 
L 345.84059 207.209739 
L 346.165569 207.209739 
L 346.490549 206.458435 
L 346.815528 206.082783 
L 347.140508 206.082783 
L 347.465487 206.458435 
L 347.790467 206.458435 
L 348.115446 206.082783 
L 348.440426 206.834087 
L 349.090385 205.331478 
L 349.415364 206.082783 
L 349.740344 205.70713 
L 350.065324 206.082783 
L 350.715283 205.331478 
L 351.040262 203.077565 
L 351.365242 204.955826 
L 351.690221 204.955826 
L 352.015201 205.331478 
L 352.34018 204.955826 
L 352.66516 193.686261 
L 352.990139 204.580174 
L 353.315119 204.580174 
L 353.640098 202.326261 
L 353.965078 204.580174 
L 354.290057 204.580174 
L 354.615037 204.204522 
L 354.940016 204.204522 
L 355.264996 203.82887 
L 355.589975 204.204522 
L 355.914955 203.82887 
L 356.239934 203.82887 
L 356.564914 203.453217 
L 357.214873 203.453217 
L 357.539853 202.701913 
L 357.864832 203.453217 
L 358.189812 203.077565 
L 358.514791 203.077565 
L 358.839771 202.701913 
L 359.16475 203.077565 
L 359.48973 202.701913 
L 359.814709 202.701913 
L 360.139689 202.326261 
L 361.114627 202.326261 
L 361.439607 201.950609 
L 362.739525 201.950609 
L 363.389484 201.199304 
L 364.689402 201.199304 
L 365.014382 200.823652 
L 365.664341 200.823652 
L 365.98932 200.448 
L 366.3143 200.823652 
L 366.639279 200.448 
L 366.964259 200.448 
L 367.289238 200.072348 
L 367.614218 200.072348 
L 367.939197 199.696696 
L 368.264177 200.072348 
L 368.589156 200.072348 
L 368.914136 199.321043 
L 369.564095 199.321043 
L 369.889075 198.945391 
L 370.214054 198.945391 
L 370.539034 197.442783 
L 370.864013 198.945391 
L 371.513972 198.945391 
L 371.838952 198.569739 
L 372.163931 198.945391 
L 372.81389 198.194087 
L 373.13887 198.194087 
L 373.463849 197.818435 
L 373.788829 198.194087 
L 374.113808 197.818435 
L 374.438788 197.818435 
L 374.763767 197.442783 
L 375.088747 197.442783 
L 375.413726 197.818435 
L 375.738706 197.442783 
L 376.063686 197.442783 
L 376.388665 197.06713 
L 376.713645 197.06713 
L 377.038624 196.691478 
L 377.363604 197.06713 
L 377.688583 196.691478 
L 378.013563 196.691478 
L 378.338542 196.315826 
L 378.663522 196.691478 
L 378.988501 195.564522 
L 379.313481 196.315826 
L 379.63846 195.564522 
L 379.96344 195.940174 
L 380.613399 195.940174 
L 380.938378 195.18887 
L 381.263358 195.940174 
L 381.588337 171.522783 
L 381.913317 185.046261 
L 382.238296 53.568 
L 382.563276 148.983652 
L 382.888256 175.279304 
L 383.213235 115.550609 
L 383.538215 154.618435 
L 383.863194 160.62887 
L 384.188174 111.418435 
L 384.513153 181.665391 
L 384.838133 194.437565 
L 385.163112 194.437565 
L 385.488092 177.157565 
L 385.813071 190.681043 
L 386.138051 194.437565 
L 386.46303 194.061913 
L 386.78801 193.310609 
L 387.112989 193.686261 
L 387.762948 192.934957 
L 388.412907 193.686261 
L 388.737887 192.934957 
L 389.062867 193.310609 
L 389.387846 192.934957 
L 389.712826 192.934957 
L 390.037805 192.559304 
L 391.012744 192.559304 
L 391.337723 191.808 
L 391.987682 192.559304 
L 392.312662 191.808 
L 392.637641 192.183652 
L 393.2876 191.432348 
L 394.912498 191.432348 
L 395.237477 191.056696 
L 396.212416 191.056696 
L 396.537396 190.305391 
L 396.862375 190.681043 
L 397.187355 190.305391 
L 398.162293 190.305391 
L 398.487273 189.554087 
L 398.487273 189.554087 
" clip-path="url(#p10fa2cd63e)" style="fill: none; stroke: #ffa500; stroke-linecap: square"/>
    <defs>
     <path id="md90094b6e4" d="M 0 -3 
L -3 3 
L 3 3 
z
" style="stroke: #000000; stroke-width: 0.3; stroke-linejoin: miter"/>
    </defs>
    <g clip-path="url(#p10fa2cd63e)">
     <use xlink:href="#md90094b6e4" x="73.832727" y="295.488" style="fill: #ffa500; stroke: #000000; stroke-width: 0.3; stroke-linejoin: miter"/>
     <use xlink:href="#md90094b6e4" x="83.582113" y="292.482783" style="fill: #ffa500; stroke: #000000; stroke-width: 0.3; stroke-linejoin: miter"/>
     <use xlink:href="#md90094b6e4" x="93.331499" y="289.477565" style="fill: #ffa500; stroke: #000000; stroke-width: 0.3; stroke-linejoin: miter"/>
     <use xlink:href="#md90094b6e4" x="103.080885" y="286.472348" style="fill: #ffa500; stroke: #000000; stroke-width: 0.3; stroke-linejoin: miter"/>
     <use xlink:href="#md90094b6e4" x="112.83027" y="280.461913" style="fill: #ffa500; stroke: #000000; stroke-width: 0.3; stroke-linejoin: miter"/>
     <use xlink:href="#md90094b6e4" x="122.579656" y="267.689739" style="fill: #ffa500; stroke: #000000; stroke-width: 0.3; stroke-linejoin: miter"/>
     <use xlink:href="#md90094b6e4" x="132.329042" y="276.329739" style="fill: #ffa500; stroke: #000000; stroke-width: 0.3; stroke-linejoin: miter"/>
     <use xlink:href="#md90094b6e4" x="142.078428" y="274.075826" style="fill: #ffa500; stroke: #000000; stroke-width: 0.3; stroke-linejoin: miter"/>
     <use xlink:href="#md90094b6e4" x="151.827813" y="266.562783" style="fill: #ffa500; stroke: #000000; stroke-width: 0.3; stroke-linejoin: miter"/>
     <use xlink:href="#md90094b6e4" x="161.577199" y="267.314087" style="fill: #ffa500; stroke: #000000; stroke-width: 0.3; stroke-linejoin: miter"/>
     <use xlink:href="#md90094b6e4" x="171.326585" y="264.30887" style="fill: #ffa500; stroke: #000000; stroke-width: 0.3; stroke-linejoin: miter"/>
     <use xlink:href="#md90094b6e4" x="181.075971" y="260.928" style="fill: #ffa500; stroke: #000000; stroke-width: 0.3; stroke-linejoin: miter"/>
     <use xlink:href="#md90094b6e4" x="190.825356" y="257.54713" style="fill: #ffa500; stroke: #000000; stroke-width: 0.3; stroke-linejoin: miter"/>
     <use xlink:href="#md90094b6e4" x="200.574742" y="254.917565" style="fill: #ffa500; stroke: #000000; stroke-width: 0.3; stroke-linejoin: miter"/>
     <use xlink:href="#md90094b6e4" x="210.324128" y="248.155826" style="fill: #ffa500; stroke: #000000; stroke-width: 0.3; stroke-linejoin: miter"/>
     <use xlink:href="#md90094b6e4" x="220.073514" y="235.383652" style="fill: #ffa500; stroke: #000000; stroke-width: 0.3; stroke-linejoin: miter"/>
     <use xlink:href="#md90094b6e4" x="229.822899" y="244.023652" style="fill: #ffa500; stroke: #000000; stroke-width: 0.3; stroke-linejoin: miter"/>
     <use xlink:href="#md90094b6e4" x="239.572285" y="121.185391" style="fill: #ffa500; stroke: #000000; stroke-width: 0.3; stroke-linejoin: miter"/>
     <use xlink:href="#md90094b6e4" x="249.321671" y="229.373217" style="fill: #ffa500; stroke: #000000; stroke-width: 0.3; stroke-linejoin: miter"/>
     <use xlink:href="#md90094b6e4" x="259.071057" y="234.632348" style="fill: #ffa500; stroke: #000000; stroke-width: 0.3; stroke-linejoin: miter"/>
     <use xlink:href="#md90094b6e4" x="268.820442" y="232.002783" style="fill: #ffa500; stroke: #000000; stroke-width: 0.3; stroke-linejoin: miter"/>
     <use xlink:href="#md90094b6e4" x="278.569828" y="228.621913" style="fill: #ffa500; stroke: #000000; stroke-width: 0.3; stroke-linejoin: miter"/>
     <use xlink:href="#md90094b6e4" x="288.319214" y="225.616696" style="fill: #ffa500; stroke: #000000; stroke-width: 0.3; stroke-linejoin: miter"/>
     <use xlink:href="#md90094b6e4" x="298.0686" y="222.611478" style="fill: #ffa500; stroke: #000000; stroke-width: 0.3; stroke-linejoin: miter"/>
     <use xlink:href="#md90094b6e4" x="307.817985" y="219.606261" style="fill: #ffa500; stroke: #000000; stroke-width: 0.3; stroke-linejoin: miter"/>
     <use xlink:href="#md90094b6e4" x="317.567371" y="216.601043" style="fill: #ffa500; stroke: #000000; stroke-width: 0.3; stroke-linejoin: miter"/>
     <use xlink:href="#md90094b6e4" x="327.316757" y="212.844522" style="fill: #ffa500; stroke: #000000; stroke-width: 0.3; stroke-linejoin: miter"/>
     <use xlink:href="#md90094b6e4" x="337.066143" y="210.214957" style="fill: #ffa500; stroke: #000000; stroke-width: 0.3; stroke-linejoin: miter"/>
     <use xlink:href="#md90094b6e4" x="346.815528" y="206.082783" style="fill: #ffa500; stroke: #000000; stroke-width: 0.3; stroke-linejoin: miter"/>
     <use xlink:href="#md90094b6e4" x="356.564914" y="203.453217" style="fill: #ffa500; stroke: #000000; stroke-width: 0.3; stroke-linejoin: miter"/>
     <use xlink:href="#md90094b6e4" x="366.3143" y="200.823652" style="fill: #ffa500; stroke: #000000; stroke-width: 0.3; stroke-linejoin: miter"/>
     <use xlink:href="#md90094b6e4" x="376.063686" y="197.442783" style="fill: #ffa500; stroke: #000000; stroke-width: 0.3; stroke-linejoin: miter"/>
     <use xlink:href="#md90094b6e4" x="385.813071" y="190.681043" style="fill: #ffa500; stroke: #000000; stroke-width: 0.3; stroke-linejoin: miter"/>
     <use xlink:href="#md90094b6e4" x="395.562457" y="191.056696" style="fill: #ffa500; stroke: #000000; stroke-width: 0.3; stroke-linejoin: miter"/>
    </g>
   </g>
   <g id="line2d_28">
    <path d="M 73.832727 295.488 
L 74.807666 295.488 
L 75.132645 295.112348 
L 76.432563 295.112348 
L 76.757543 294.736696 
L 78.057461 294.736696 
L 78.382441 294.361043 
L 79.0324 294.361043 
L 79.357379 293.985391 
L 80.007338 293.985391 
L 80.332318 293.609739 
L 81.307256 293.609739 
L 81.632236 293.234087 
L 82.607174 293.234087 
L 82.932154 292.858435 
L 83.907093 292.858435 
L 84.232072 292.482783 
L 84.557052 292.482783 
L 84.882031 292.10713 
L 85.207011 292.482783 
L 85.53199 292.10713 
L 86.181949 292.10713 
L 86.506929 291.731478 
L 87.156888 291.731478 
L 87.481867 291.355826 
L 88.781785 291.355826 
L 89.106765 290.980174 
L 89.431744 289.101913 
L 89.756724 290.22887 
L 90.081704 290.604522 
L 90.731663 290.604522 
L 91.381622 289.853217 
L 91.706601 288.726261 
L 92.031581 289.853217 
L 92.35656 289.101913 
L 92.68154 288.726261 
L 93.006519 289.477565 
L 94.631417 289.477565 
L 94.956396 289.101913 
L 95.931335 289.101913 
L 96.256314 288.726261 
L 96.581294 288.726261 
L 96.906274 288.350609 
L 97.556233 288.350609 
L 97.881212 287.974957 
L 98.206192 287.974957 
L 98.531171 284.218435 
L 98.856151 282.340174 
L 99.18113 287.974957 
L 99.50611 287.974957 
L 99.831089 287.599304 
L 100.156069 287.599304 
L 100.481048 287.223652 
L 100.806028 287.599304 
L 101.131007 286.848 
L 101.780966 286.848 
L 102.105946 285.721043 
L 102.430925 286.472348 
L 103.730844 286.472348 
L 104.055823 286.096696 
L 104.705782 286.096696 
L 105.355741 285.345391 
L 105.680721 285.721043 
L 106.33068 285.721043 
L 106.655659 285.345391 
L 106.980639 285.345391 
L 107.305618 284.969739 
L 108.605536 284.969739 
L 108.930516 284.594087 
L 109.580475 284.594087 
L 109.905455 284.218435 
L 111.205373 284.218435 
L 111.530352 283.46713 
L 111.855332 283.842783 
L 112.180311 283.46713 
L 112.83027 283.46713 
L 113.15525 283.091478 
L 113.805209 283.091478 
L 114.130188 282.715826 
L 115.430106 282.715826 
L 115.755086 282.340174 
L 116.405045 282.340174 
L 116.730025 281.964522 
L 117.055004 281.964522 
L 117.379984 281.58887 
L 118.354922 281.58887 
L 118.679902 281.213217 
L 119.97982 281.213217 
L 120.304799 280.837565 
L 120.954758 280.837565 
L 121.279738 280.461913 
L 122.904636 280.461913 
L 123.229615 279.710609 
L 123.554595 280.086261 
L 123.879574 279.710609 
L 124.204554 279.710609 
L 124.529533 279.334957 
L 125.829451 279.334957 
L 126.154431 278.583652 
L 126.47941 278.583652 
L 126.80439 278.959304 
L 127.129369 278.583652 
L 127.454349 278.959304 
L 128.104308 278.208 
L 129.079247 278.208 
L 129.404226 277.832348 
L 129.729206 277.832348 
L 130.054185 277.456696 
L 130.379165 277.832348 
L 130.704144 277.456696 
L 131.029124 277.456696 
L 131.354103 277.081043 
L 131.679083 277.456696 
L 132.329042 276.705391 
L 132.979001 276.705391 
L 133.30398 277.081043 
L 133.62896 276.329739 
L 133.953939 276.705391 
L 134.278919 275.954087 
L 134.603898 276.329739 
L 135.253857 275.578435 
L 136.553776 275.578435 
L 136.878755 275.202783 
L 137.528714 275.202783 
L 137.853694 274.82713 
L 138.503653 274.82713 
L 138.828632 274.451478 
L 139.803571 274.451478 
L 140.12855 274.075826 
L 140.778509 274.075826 
L 141.103489 273.700174 
L 141.753448 273.700174 
L 142.078428 273.324522 
L 143.053366 273.324522 
L 143.378346 272.94887 
L 145.003243 272.94887 
L 145.328223 272.573217 
L 145.653202 272.573217 
L 145.978182 272.197565 
L 146.95312 272.197565 
L 147.2781 271.821913 
L 148.253038 271.821913 
L 148.578018 271.446261 
L 148.902998 271.446261 
L 149.227977 271.070609 
L 149.552957 271.070609 
L 149.877936 270.694957 
L 150.202916 270.694957 
L 150.527895 271.070609 
L 150.852875 270.694957 
L 151.177854 270.694957 
L 151.502834 270.319304 
L 152.802752 270.319304 
L 153.127731 269.943652 
L 154.10267 269.943652 
L 154.427649 269.568 
L 154.752629 269.568 
L 155.077609 266.938435 
L 155.402588 269.192348 
L 156.702506 269.192348 
L 157.027486 268.816696 
L 157.677445 268.816696 
L 158.002424 268.441043 
L 158.327404 268.441043 
L 158.652383 268.065391 
L 159.627322 268.065391 
L 159.952301 267.689739 
L 160.60226 267.689739 
L 160.92724 267.314087 
L 161.252219 267.689739 
L 161.577199 267.314087 
L 162.552138 267.314087 
L 162.877117 266.938435 
L 163.527076 266.938435 
L 163.852056 266.562783 
L 164.177035 266.562783 
L 164.502015 266.18713 
L 165.476953 266.18713 
L 165.801933 265.811478 
L 166.126912 266.18713 
L 166.776871 265.435826 
L 167.75181 265.435826 
L 168.07679 265.060174 
L 169.376708 265.060174 
L 169.701687 264.684522 
L 170.026667 264.684522 
L 170.351646 263.933217 
L 170.676626 264.30887 
L 171.001605 264.30887 
L 171.326585 263.933217 
L 171.651564 264.30887 
L 171.976544 264.30887 
L 172.626503 263.557565 
L 173.601441 263.557565 
L 173.926421 263.181913 
L 174.90136 263.181913 
L 175.226339 262.806261 
L 176.201278 262.806261 
L 176.526257 262.054957 
L 176.851237 262.430609 
L 177.501196 262.430609 
L 177.826175 262.054957 
L 178.151155 262.430609 
L 178.476134 262.054957 
L 179.126093 262.054957 
L 179.451073 261.679304 
L 179.776052 261.679304 
L 180.101032 261.303652 
L 180.750991 258.674087 
L 181.075971 261.303652 
L 181.72593 260.552348 
L 182.375889 260.552348 
L 182.700868 260.176696 
L 184.325766 260.176696 
L 184.650745 259.801043 
L 185.300704 259.801043 
L 185.625684 259.425391 
L 185.950663 259.801043 
L 186.275643 259.425391 
L 186.600622 259.425391 
L 187.250581 258.674087 
L 187.575561 259.049739 
L 187.900541 259.049739 
L 188.5505 258.298435 
L 188.875479 258.674087 
L 189.200459 258.298435 
L 189.850418 258.298435 
L 190.175397 257.922783 
L 190.825356 257.922783 
L 191.150336 257.54713 
L 191.475315 257.922783 
L 191.800295 257.171478 
L 192.125274 257.54713 
L 192.450254 257.54713 
L 192.775233 257.171478 
L 193.100213 257.54713 
L 193.425192 256.795826 
L 194.725111 256.795826 
L 195.05009 256.420174 
L 195.700049 256.420174 
L 196.025029 256.044522 
L 196.674988 256.044522 
L 196.999967 255.66887 
L 197.649926 255.66887 
L 197.974906 255.293217 
L 198.624865 255.293217 
L 198.949844 254.917565 
L 199.274824 254.917565 
L 199.599803 254.541913 
L 199.924783 254.917565 
L 200.574742 254.917565 
L 200.899722 254.541913 
L 201.224701 254.541913 
L 201.549681 254.166261 
L 202.524619 254.166261 
L 203.174578 253.414957 
L 203.499558 253.790609 
L 203.824537 253.790609 
L 204.149517 253.039304 
L 204.474496 253.414957 
L 204.799476 253.414957 
L 205.124455 253.039304 
L 205.774414 253.039304 
L 206.099394 252.663652 
L 207.074333 252.663652 
L 207.399312 252.288 
L 208.374251 252.288 
L 208.69923 251.536696 
L 209.02421 251.912348 
L 209.674169 251.161043 
L 209.999148 251.536696 
L 210.649107 251.536696 
L 210.974087 251.161043 
L 211.299066 251.536696 
L 211.624046 250.785391 
L 211.949025 251.161043 
L 212.274005 243.648 
L 212.598984 250.785391 
L 212.923964 250.409739 
L 213.248943 250.409739 
L 213.573923 250.785391 
L 213.898903 250.409739 
L 214.223882 250.409739 
L 214.548862 250.034087 
L 214.873841 250.034087 
L 215.198821 249.658435 
L 215.5238 250.034087 
L 215.84878 249.658435 
L 216.173759 249.658435 
L 216.823718 248.90713 
L 217.148698 249.282783 
L 217.798657 249.282783 
L 218.123636 248.531478 
L 218.448616 248.90713 
L 218.773595 248.90713 
L 219.098575 248.531478 
L 219.423554 248.90713 
L 219.748534 248.155826 
L 221.048452 248.155826 
L 221.373432 247.404522 
L 221.698411 247.780174 
L 222.023391 247.404522 
L 222.34837 247.780174 
L 222.67335 247.404522 
L 223.323309 247.404522 
L 223.648288 247.02887 
L 224.623227 247.02887 
L 224.948206 246.653217 
L 225.273186 247.02887 
L 225.923145 246.277565 
L 226.248124 246.277565 
L 226.573104 245.901913 
L 227.548043 245.901913 
L 227.873022 245.526261 
L 228.198002 245.526261 
L 228.522981 245.150609 
L 228.847961 245.901913 
L 229.17294 245.150609 
L 229.822899 245.150609 
L 230.147879 244.774957 
L 230.472858 244.774957 
L 230.797838 244.023652 
L 231.122817 245.150609 
L 231.772776 244.399304 
L 232.422735 244.399304 
L 233.072695 243.648 
L 233.397674 244.023652 
L 233.722654 244.023652 
L 234.047633 243.648 
L 234.372613 243.648 
L 234.697592 243.272348 
L 235.347551 243.272348 
L 235.672531 242.896696 
L 235.99751 243.272348 
L 236.647469 242.521043 
L 236.972449 242.521043 
L 237.297428 242.145391 
L 237.622408 242.521043 
L 238.272367 242.521043 
L 238.597346 242.145391 
L 238.922326 241.394087 
L 239.247305 238.38887 
L 239.572285 241.018435 
L 239.897265 241.769739 
L 240.222244 241.394087 
L 240.547224 241.769739 
L 240.872203 241.394087 
L 241.522162 241.394087 
L 241.847142 241.018435 
L 242.82208 241.018435 
L 243.14706 240.26713 
L 243.472039 240.642783 
L 243.797019 240.26713 
L 244.121998 240.26713 
L 244.446978 239.891478 
L 244.771957 240.26713 
L 245.421916 240.26713 
L 245.746896 239.891478 
L 246.071876 239.891478 
L 246.396855 239.515826 
L 247.371794 239.515826 
L 247.696773 239.140174 
L 248.346732 239.140174 
L 248.671712 238.764522 
L 249.321671 238.764522 
L 249.64665 238.38887 
L 249.97163 238.764522 
L 250.296609 238.38887 
L 250.621589 238.38887 
L 250.946568 238.013217 
L 251.271548 238.013217 
L 251.596527 236.510609 
L 251.921507 238.013217 
L 252.246486 237.637565 
L 252.571466 238.013217 
L 252.896446 237.637565 
L 253.221425 237.637565 
L 253.546405 237.261913 
L 253.871384 237.261913 
L 254.196364 236.886261 
L 255.171302 236.886261 
L 255.496282 236.510609 
L 256.47122 236.510609 
L 256.7962 236.134957 
L 257.121179 236.134957 
L 257.446159 235.759304 
L 257.771138 236.134957 
L 258.096118 235.759304 
L 259.396036 235.759304 
L 260.045995 235.008 
L 260.370975 235.383652 
L 260.695954 234.632348 
L 261.020934 235.008 
L 261.670893 235.008 
L 262.320852 234.256696 
L 263.62077 234.256696 
L 263.945749 232.754087 
L 264.270729 233.505391 
L 265.570647 233.505391 
L 266.220606 232.754087 
L 267.520524 232.754087 
L 267.845504 232.378435 
L 269.145422 232.378435 
L 269.470401 231.62713 
L 270.12036 232.378435 
L 270.44534 231.62713 
L 271.095299 231.62713 
L 271.745258 230.875826 
L 272.720197 230.875826 
L 273.045176 230.500174 
L 273.695135 230.500174 
L 274.020115 230.124522 
L 274.345094 230.500174 
L 274.670074 230.500174 
L 274.995053 230.124522 
L 275.320033 230.124522 
L 275.645012 229.74887 
L 275.969992 230.124522 
L 276.619951 229.373217 
L 276.94493 229.373217 
L 277.26991 228.997565 
L 277.594889 229.373217 
L 277.919869 221.10887 
L 278.244848 229.373217 
L 278.894808 228.621913 
L 279.219787 228.997565 
L 279.869746 228.997565 
L 280.194726 228.621913 
L 280.519705 228.621913 
L 280.844685 228.246261 
L 281.169664 228.246261 
L 281.819623 227.494957 
L 282.144603 228.246261 
L 282.469582 227.870609 
L 282.794562 227.119304 
L 283.119541 227.494957 
L 283.444521 227.494957 
L 283.7695 225.241043 
L 284.09448 227.119304 
L 284.419459 226.743652 
L 284.744439 227.119304 
L 285.069419 226.743652 
L 285.719378 226.743652 
L 286.044357 226.368 
L 286.369337 226.368 
L 286.694316 225.616696 
L 287.344275 226.368 
L 287.669255 225.992348 
L 287.994234 225.241043 
L 288.319214 225.992348 
L 288.969173 225.241043 
L 289.294152 225.241043 
L 289.619132 225.616696 
L 289.944111 225.616696 
L 290.59407 224.865391 
L 291.244029 224.865391 
L 291.569009 224.114087 
L 291.893989 224.865391 
L 292.218968 224.489739 
L 292.543948 224.489739 
L 292.868927 224.114087 
L 294.493825 224.114087 
L 294.818804 223.362783 
L 295.143784 223.738435 
L 295.468763 223.738435 
L 295.793743 223.362783 
L 296.118722 223.362783 
L 296.443702 222.98713 
L 296.768681 223.362783 
L 297.093661 222.98713 
L 297.41864 222.98713 
L 297.74362 222.611478 
L 298.0686 222.611478 
L 298.393579 222.235826 
L 298.718559 222.611478 
L 299.043538 222.235826 
L 299.368518 222.235826 
L 299.693497 221.860174 
L 300.018477 221.860174 
L 300.343456 221.484522 
L 300.668436 221.860174 
L 300.993415 221.484522 
L 301.318395 221.860174 
L 301.643374 221.860174 
L 302.293333 221.10887 
L 302.943292 221.10887 
L 303.268272 220.733217 
L 304.56819 220.733217 
L 305.218149 219.981913 
L 305.543129 219.981913 
L 305.868108 220.357565 
L 306.518067 219.606261 
L 306.843047 219.606261 
L 307.168026 219.981913 
L 307.493006 219.981913 
L 308.142965 219.230609 
L 309.117903 219.230609 
L 309.442883 218.854957 
L 309.767862 219.230609 
L 310.417821 218.479304 
L 311.067781 218.479304 
L 311.39276 218.103652 
L 312.367699 218.103652 
L 312.692678 217.728 
L 313.667617 217.728 
L 313.992596 217.352348 
L 314.967535 217.352348 
L 315.292514 216.601043 
L 315.617494 216.976696 
L 315.942473 216.976696 
L 316.267453 216.601043 
L 316.917412 216.601043 
L 317.242391 216.225391 
L 317.892351 216.225391 
L 318.21733 215.849739 
L 318.54231 216.225391 
L 318.867289 216.225391 
L 319.192269 215.849739 
L 319.842228 215.849739 
L 320.167207 215.474087 
L 320.817166 215.474087 
L 321.142146 215.098435 
L 321.792105 215.098435 
L 322.117084 214.722783 
L 323.417002 214.722783 
L 323.741982 214.34713 
L 324.066962 214.34713 
L 324.391941 213.971478 
L 324.716921 213.971478 
L 325.0419 214.34713 
L 325.36688 213.595826 
L 326.016839 213.595826 
L 326.341818 213.220174 
L 326.666798 213.220174 
L 326.991777 212.093217 
L 327.316757 213.220174 
L 327.641736 213.220174 
L 328.291695 212.46887 
L 328.616675 212.844522 
L 328.941654 212.46887 
L 329.266634 212.46887 
L 329.591613 212.093217 
L 330.891532 212.093217 
L 331.216511 211.717565 
L 331.541491 212.093217 
L 331.86647 211.717565 
L 332.19145 211.717565 
L 332.516429 211.341913 
L 333.491368 211.341913 
L 333.816347 210.966261 
L 334.466306 210.966261 
L 334.791286 210.214957 
L 335.116265 210.590609 
L 335.441245 210.590609 
L 335.766224 210.214957 
L 336.091204 209.463652 
L 336.416183 210.214957 
L 336.741163 209.463652 
L 337.066143 209.839304 
L 337.716102 209.839304 
L 338.041081 209.463652 
L 338.366061 209.463652 
L 338.69104 209.088 
L 339.340999 209.088 
L 339.665979 208.712348 
L 340.965897 208.712348 
L 341.290876 208.336696 
L 342.915774 208.336696 
L 343.240753 207.961043 
L 343.565733 207.961043 
L 343.890713 207.585391 
L 345.190631 207.585391 
L 345.51561 206.834087 
L 346.165569 206.834087 
L 346.490549 206.458435 
L 346.815528 206.834087 
L 347.140508 206.458435 
L 347.465487 206.458435 
L 347.790467 206.834087 
L 348.765405 205.70713 
L 349.090385 206.082783 
L 349.415364 205.331478 
L 349.740344 205.70713 
L 350.065324 205.331478 
L 350.390303 205.70713 
L 351.040262 204.955826 
L 351.365242 205.331478 
L 351.690221 204.955826 
L 352.015201 205.331478 
L 352.34018 204.955826 
L 352.66516 205.331478 
L 352.990139 204.580174 
L 353.640098 204.580174 
L 353.965078 204.204522 
L 354.290057 204.204522 
L 354.615037 203.82887 
L 355.264996 203.82887 
L 355.589975 204.204522 
L 356.239934 203.453217 
L 356.564914 203.453217 
L 356.889894 203.077565 
L 357.539853 203.077565 
L 357.864832 202.701913 
L 358.189812 203.077565 
L 358.514791 202.701913 
L 358.839771 203.077565 
L 359.16475 202.326261 
L 359.48973 202.701913 
L 359.814709 202.326261 
L 360.139689 202.701913 
L 360.464668 202.326261 
L 360.789648 201.574957 
L 361.114627 201.950609 
L 362.089566 201.950609 
L 362.414545 201.574957 
L 363.389484 201.574957 
L 364.039443 200.823652 
L 365.339361 200.823652 
L 365.664341 200.072348 
L 365.98932 200.448 
L 366.3143 200.448 
L 366.639279 200.072348 
L 367.614218 200.072348 
L 368.264177 199.321043 
L 368.914136 199.321043 
L 369.239115 198.945391 
L 369.564095 199.321043 
L 369.889075 198.945391 
L 370.214054 199.321043 
L 370.539034 198.569739 
L 370.864013 198.945391 
L 371.513972 198.945391 
L 371.838952 198.569739 
L 372.163931 198.569739 
L 372.81389 197.818435 
L 373.13887 198.194087 
L 373.463849 197.818435 
L 373.788829 197.818435 
L 374.113808 197.442783 
L 374.438788 197.818435 
L 374.763767 197.442783 
L 375.413726 197.442783 
L 376.063686 196.691478 
L 376.388665 197.06713 
L 376.713645 196.691478 
L 377.038624 197.06713 
L 377.363604 196.691478 
L 377.688583 196.691478 
L 378.013563 195.940174 
L 378.338542 196.315826 
L 378.663522 196.315826 
L 378.988501 195.940174 
L 380.938378 195.940174 
L 381.588337 195.18887 
L 381.913317 195.18887 
L 382.238296 194.813217 
L 382.563276 194.813217 
L 382.888256 194.437565 
L 383.213235 194.813217 
L 383.538215 194.813217 
L 383.863194 194.437565 
L 384.513153 194.437565 
L 384.838133 194.061913 
L 385.163112 194.437565 
L 385.488092 193.686261 
L 385.813071 194.061913 
L 386.138051 193.686261 
L 386.46303 193.686261 
L 386.78801 192.934957 
L 387.112989 193.686261 
L 387.437969 193.310609 
L 387.762948 193.310609 
L 388.412907 192.559304 
L 389.712826 192.559304 
L 390.037805 192.183652 
L 390.362785 192.559304 
L 390.687764 191.808 
L 391.012744 192.183652 
L 391.662703 191.432348 
L 391.987682 191.808 
L 392.637641 191.808 
L 392.962621 191.432348 
L 393.2876 191.808 
L 393.61258 191.056696 
L 393.937559 191.432348 
L 394.587518 190.681043 
L 394.912498 191.056696 
L 395.237477 191.056696 
L 395.887437 190.305391 
L 396.212416 190.681043 
L 396.537396 190.681043 
L 396.862375 190.305391 
L 397.187355 190.305391 
L 397.512334 189.929739 
L 398.487273 189.929739 
L 398.487273 189.929739 
" clip-path="url(#p10fa2cd63e)" style="fill: none; stroke: #008000; stroke-linecap: square"/>
    <defs>
     <path id="m3a49b20cd9" d="M -3 3 
L 3 3 
L 3 -3 
L -3 -3 
z
" style="stroke: #000000; stroke-width: 0.3; stroke-linejoin: miter"/>
    </defs>
    <g clip-path="url(#p10fa2cd63e)">
     <use xlink:href="#m3a49b20cd9" x="73.832727" y="295.488" style="fill: #008000; stroke: #000000; stroke-width: 0.3; stroke-linejoin: miter"/>
     <use xlink:href="#m3a49b20cd9" x="83.582113" y="292.858435" style="fill: #008000; stroke: #000000; stroke-width: 0.3; stroke-linejoin: miter"/>
     <use xlink:href="#m3a49b20cd9" x="93.331499" y="289.477565" style="fill: #008000; stroke: #000000; stroke-width: 0.3; stroke-linejoin: miter"/>
     <use xlink:href="#m3a49b20cd9" x="103.080885" y="286.472348" style="fill: #008000; stroke: #000000; stroke-width: 0.3; stroke-linejoin: miter"/>
     <use xlink:href="#m3a49b20cd9" x="112.83027" y="283.46713" style="fill: #008000; stroke: #000000; stroke-width: 0.3; stroke-linejoin: miter"/>
     <use xlink:href="#m3a49b20cd9" x="122.579656" y="280.461913" style="fill: #008000; stroke: #000000; stroke-width: 0.3; stroke-linejoin: miter"/>
     <use xlink:href="#m3a49b20cd9" x="132.329042" y="276.705391" style="fill: #008000; stroke: #000000; stroke-width: 0.3; stroke-linejoin: miter"/>
     <use xlink:href="#m3a49b20cd9" x="142.078428" y="273.324522" style="fill: #008000; stroke: #000000; stroke-width: 0.3; stroke-linejoin: miter"/>
     <use xlink:href="#m3a49b20cd9" x="151.827813" y="270.319304" style="fill: #008000; stroke: #000000; stroke-width: 0.3; stroke-linejoin: miter"/>
     <use xlink:href="#m3a49b20cd9" x="161.577199" y="267.314087" style="fill: #008000; stroke: #000000; stroke-width: 0.3; stroke-linejoin: miter"/>
     <use xlink:href="#m3a49b20cd9" x="171.326585" y="263.933217" style="fill: #008000; stroke: #000000; stroke-width: 0.3; stroke-linejoin: miter"/>
     <use xlink:href="#m3a49b20cd9" x="181.075971" y="261.303652" style="fill: #008000; stroke: #000000; stroke-width: 0.3; stroke-linejoin: miter"/>
     <use xlink:href="#m3a49b20cd9" x="190.825356" y="257.922783" style="fill: #008000; stroke: #000000; stroke-width: 0.3; stroke-linejoin: miter"/>
     <use xlink:href="#m3a49b20cd9" x="200.574742" y="254.917565" style="fill: #008000; stroke: #000000; stroke-width: 0.3; stroke-linejoin: miter"/>
     <use xlink:href="#m3a49b20cd9" x="210.324128" y="251.536696" style="fill: #008000; stroke: #000000; stroke-width: 0.3; stroke-linejoin: miter"/>
     <use xlink:href="#m3a49b20cd9" x="220.073514" y="248.155826" style="fill: #008000; stroke: #000000; stroke-width: 0.3; stroke-linejoin: miter"/>
     <use xlink:href="#m3a49b20cd9" x="229.822899" y="245.150609" style="fill: #008000; stroke: #000000; stroke-width: 0.3; stroke-linejoin: miter"/>
     <use xlink:href="#m3a49b20cd9" x="239.572285" y="241.018435" style="fill: #008000; stroke: #000000; stroke-width: 0.3; stroke-linejoin: miter"/>
     <use xlink:href="#m3a49b20cd9" x="249.321671" y="238.764522" style="fill: #008000; stroke: #000000; stroke-width: 0.3; stroke-linejoin: miter"/>
     <use xlink:href="#m3a49b20cd9" x="259.071057" y="235.759304" style="fill: #008000; stroke: #000000; stroke-width: 0.3; stroke-linejoin: miter"/>
     <use xlink:href="#m3a49b20cd9" x="268.820442" y="232.378435" style="fill: #008000; stroke: #000000; stroke-width: 0.3; stroke-linejoin: miter"/>
     <use xlink:href="#m3a49b20cd9" x="278.569828" y="228.997565" style="fill: #008000; stroke: #000000; stroke-width: 0.3; stroke-linejoin: miter"/>
     <use xlink:href="#m3a49b20cd9" x="288.319214" y="225.992348" style="fill: #008000; stroke: #000000; stroke-width: 0.3; stroke-linejoin: miter"/>
     <use xlink:href="#m3a49b20cd9" x="298.0686" y="222.611478" style="fill: #008000; stroke: #000000; stroke-width: 0.3; stroke-linejoin: miter"/>
     <use xlink:href="#m3a49b20cd9" x="307.817985" y="219.606261" style="fill: #008000; stroke: #000000; stroke-width: 0.3; stroke-linejoin: miter"/>
     <use xlink:href="#m3a49b20cd9" x="317.567371" y="216.225391" style="fill: #008000; stroke: #000000; stroke-width: 0.3; stroke-linejoin: miter"/>
     <use xlink:href="#m3a49b20cd9" x="327.316757" y="213.220174" style="fill: #008000; stroke: #000000; stroke-width: 0.3; stroke-linejoin: miter"/>
     <use xlink:href="#m3a49b20cd9" x="337.066143" y="209.839304" style="fill: #008000; stroke: #000000; stroke-width: 0.3; stroke-linejoin: miter"/>
     <use xlink:href="#m3a49b20cd9" x="346.815528" y="206.834087" style="fill: #008000; stroke: #000000; stroke-width: 0.3; stroke-linejoin: miter"/>
     <use xlink:href="#m3a49b20cd9" x="356.564914" y="203.453217" style="fill: #008000; stroke: #000000; stroke-width: 0.3; stroke-linejoin: miter"/>
     <use xlink:href="#m3a49b20cd9" x="366.3143" y="200.448" style="fill: #008000; stroke: #000000; stroke-width: 0.3; stroke-linejoin: miter"/>
     <use xlink:href="#m3a49b20cd9" x="376.063686" y="196.691478" style="fill: #008000; stroke: #000000; stroke-width: 0.3; stroke-linejoin: miter"/>
     <use xlink:href="#m3a49b20cd9" x="385.813071" y="194.061913" style="fill: #008000; stroke: #000000; stroke-width: 0.3; stroke-linejoin: miter"/>
     <use xlink:href="#m3a49b20cd9" x="395.562457" y="190.681043" style="fill: #008000; stroke: #000000; stroke-width: 0.3; stroke-linejoin: miter"/>
    </g>
   </g>
   <g id="patch_3">
    <path d="M 57.6 307.584 
L 57.6 41.472 
" style="fill: none; stroke: #000000; stroke-width: 0.8; stroke-linejoin: miter; stroke-linecap: square"/>
   </g>
   <g id="patch_4">
    <path d="M 414.72 307.584 
L 414.72 41.472 
" style="fill: none; stroke: #000000; stroke-width: 0.8; stroke-linejoin: miter; stroke-linecap: square"/>
   </g>
   <g id="patch_5">
    <path d="M 57.6 307.584 
L 414.72 307.584 
" style="fill: none; stroke: #000000; stroke-width: 0.8; stroke-linejoin: miter; stroke-linecap: square"/>
   </g>
   <g id="patch_6">
    <path d="M 57.6 41.472 
L 414.72 41.472 
" style="fill: none; stroke: #000000; stroke-width: 0.8; stroke-linejoin: miter; stroke-linecap: square"/>
   </g>
   <g id="text_17">
    <!-- Containers "push_front()" time comparison with -O3 optimization -->
    <g transform="translate(40.744687 35.472)scale(0.12 -0.12)">
     <defs>
      <path id="DejaVuSans-43" d="M 4122 4306 
L 4122 3641 
Q 3803 3938 3442 4084 
Q 3081 4231 2675 4231 
Q 1875 4231 1450 3742 
Q 1025 3253 1025 2328 
Q 1025 1406 1450 917 
Q 1875 428 2675 428 
Q 3081 428 3442 575 
Q 3803 722 4122 1019 
L 4122 359 
Q 3791 134 3420 21 
Q 3050 -91 2638 -91 
Q 1578 -91 968 557 
Q 359 1206 359 2328 
Q 359 3453 968 4101 
Q 1578 4750 2638 4750 
Q 3056 4750 3426 4639 
Q 3797 4528 4122 4306 
z
" transform="scale(0.015625)"/>
      <path id="DejaVuSans-61" d="M 2194 1759 
Q 1497 1759 1228 1600 
Q 959 1441 959 1056 
Q 959 750 1161 570 
Q 1363 391 1709 391 
Q 2188 391 2477 730 
Q 2766 1069 2766 1631 
L 2766 1759 
L 2194 1759 
z
M 3341 1997 
L 3341 0 
L 2766 0 
L 2766 531 
Q 2569 213 2275 61 
Q 1981 -91 1556 -91 
Q 1019 -91 701 211 
Q 384 513 384 1019 
Q 384 1609 779 1909 
Q 1175 2209 1959 2209 
L 2766 2209 
L 2766 2266 
Q 2766 2663 2505 2880 
Q 2244 3097 1772 3097 
Q 1472 3097 1187 3025 
Q 903 2953 641 2809 
L 641 3341 
Q 956 3463 1253 3523 
Q 1550 3584 1831 3584 
Q 2591 3584 2966 3190 
Q 3341 2797 3341 1997 
z
" transform="scale(0.015625)"/>
      <path id="DejaVuSans-22" d="M 1147 4666 
L 1147 2931 
L 616 2931 
L 616 4666 
L 1147 4666 
z
M 2328 4666 
L 2328 2931 
L 1797 2931 
L 1797 4666 
L 2328 4666 
z
" transform="scale(0.015625)"/>
      <path id="DejaVuSans-70" d="M 1159 525 
L 1159 -1331 
L 581 -1331 
L 581 3500 
L 1159 3500 
L 1159 2969 
Q 1341 3281 1617 3432 
Q 1894 3584 2278 3584 
Q 2916 3584 3314 3078 
Q 3713 2572 3713 1747 
Q 3713 922 3314 415 
Q 2916 -91 2278 -91 
Q 1894 -91 1617 61 
Q 1341 213 1159 525 
z
M 3116 1747 
Q 3116 2381 2855 2742 
Q 2594 3103 2138 3103 
Q 1681 3103 1420 2742 
Q 1159 2381 1159 1747 
Q 1159 1113 1420 752 
Q 1681 391 2138 391 
Q 2594 391 2855 752 
Q 3116 1113 3116 1747 
z
" transform="scale(0.015625)"/>
      <path id="DejaVuSans-68" d="M 3513 2113 
L 3513 0 
L 2938 0 
L 2938 2094 
Q 2938 2591 2744 2837 
Q 2550 3084 2163 3084 
Q 1697 3084 1428 2787 
Q 1159 2491 1159 1978 
L 1159 0 
L 581 0 
L 581 4863 
L 1159 4863 
L 1159 2956 
Q 1366 3272 1645 3428 
Q 1925 3584 2291 3584 
Q 2894 3584 3203 3211 
Q 3513 2838 3513 2113 
z
" transform="scale(0.015625)"/>
      <path id="DejaVuSans-5f" d="M 3263 -1063 
L 3263 -1509 
L -63 -1509 
L -63 -1063 
L 3263 -1063 
z
" transform="scale(0.015625)"/>
      <path id="DejaVuSans-28" d="M 1984 4856 
Q 1566 4138 1362 3434 
Q 1159 2731 1159 2009 
Q 1159 1288 1364 580 
Q 1569 -128 1984 -844 
L 1484 -844 
Q 1016 -109 783 600 
Q 550 1309 550 2009 
Q 550 2706 781 3412 
Q 1013 4119 1484 4856 
L 1984 4856 
z
" transform="scale(0.015625)"/>
      <path id="DejaVuSans-29" d="M 513 4856 
L 1013 4856 
Q 1481 4119 1714 3412 
Q 1947 2706 1947 2009 
Q 1947 1309 1714 600 
Q 1481 -109 1013 -844 
L 513 -844 
Q 928 -128 1133 580 
Q 1338 1288 1338 2009 
Q 1338 2731 1133 3434 
Q 928 4138 513 4856 
z
" transform="scale(0.015625)"/>
      <path id="DejaVuSans-63" d="M 3122 3366 
L 3122 2828 
Q 2878 2963 2633 3030 
Q 2388 3097 2138 3097 
Q 1578 3097 1268 2742 
Q 959 2388 959 1747 
Q 959 1106 1268 751 
Q 1578 397 2138 397 
Q 2388 397 2633 464 
Q 2878 531 3122 666 
L 3122 134 
Q 2881 22 2623 -34 
Q 2366 -91 2075 -91 
Q 1284 -91 818 406 
Q 353 903 353 1747 
Q 353 2603 823 3093 
Q 1294 3584 2113 3584 
Q 2378 3584 2631 3529 
Q 2884 3475 3122 3366 
z
" transform="scale(0.015625)"/>
      <path id="DejaVuSans-77" d="M 269 3500 
L 844 3500 
L 1563 769 
L 2278 3500 
L 2956 3500 
L 3675 769 
L 4391 3500 
L 4966 3500 
L 4050 0 
L 3372 0 
L 2619 2869 
L 1863 0 
L 1184 0 
L 269 3500 
z
" transform="scale(0.015625)"/>
      <path id="DejaVuSans-2d" d="M 313 2009 
L 1997 2009 
L 1997 1497 
L 313 1497 
L 313 2009 
z
" transform="scale(0.015625)"/>
      <path id="DejaVuSans-4f" d="M 2522 4238 
Q 1834 4238 1429 3725 
Q 1025 3213 1025 2328 
Q 1025 1447 1429 934 
Q 1834 422 2522 422 
Q 3209 422 3611 934 
Q 4013 1447 4013 2328 
Q 4013 3213 3611 3725 
Q 3209 4238 2522 4238 
z
M 2522 4750 
Q 3503 4750 4090 4092 
Q 4678 3434 4678 2328 
Q 4678 1225 4090 567 
Q 3503 -91 2522 -91 
Q 1538 -91 948 565 
Q 359 1222 359 2328 
Q 359 3434 948 4092 
Q 1538 4750 2522 4750 
z
" transform="scale(0.015625)"/>
      <path id="DejaVuSans-7a" d="M 353 3500 
L 3084 3500 
L 3084 2975 
L 922 459 
L 3084 459 
L 3084 0 
L 275 0 
L 275 525 
L 2438 3041 
L 353 3041 
L 353 3500 
z
" transform="scale(0.015625)"/>
     </defs>
     <use xlink:href="#DejaVuSans-43"/>
     <use xlink:href="#DejaVuSans-6f" x="69.824219"/>
     <use xlink:href="#DejaVuSans-6e" x="131.005859"/>
     <use xlink:href="#DejaVuSans-74" x="194.384766"/>
     <use xlink:href="#DejaVuSans-61" x="233.59375"/>
     <use xlink:href="#DejaVuSans-69" x="294.873047"/>
     <use xlink:href="#DejaVuSans-6e" x="322.65625"/>
     <use xlink:href="#DejaVuSans-65" x="386.035156"/>
     <use xlink:href="#DejaVuSans-72" x="447.558594"/>
     <use xlink:href="#DejaVuSans-73" x="488.671875"/>
     <use xlink:href="#DejaVuSans-20" x="540.771484"/>
     <use xlink:href="#DejaVuSans-22" x="572.558594"/>
     <use xlink:href="#DejaVuSans-70" x="618.554688"/>
     <use xlink:href="#DejaVuSans-75" x="682.03125"/>
     <use xlink:href="#DejaVuSans-73" x="745.410156"/>
     <use xlink:href="#DejaVuSans-68" x="797.509766"/>
     <use xlink:href="#DejaVuSans-5f" x="860.888672"/>
     <use xlink:href="#DejaVuSans-66" x="910.888672"/>
     <use xlink:href="#DejaVuSans-72" x="946.09375"/>
     <use xlink:href="#DejaVuSans-6f" x="984.957031"/>
     <use xlink:href="#DejaVuSans-6e" x="1046.138672"/>
     <use xlink:href="#DejaVuSans-74" x="1109.517578"/>
     <use xlink:href="#DejaVuSans-28" x="1148.726562"/>
     <use xlink:href="#DejaVuSans-29" x="1187.740234"/>
     <use xlink:href="#DejaVuSans-22" x="1226.753906"/>
     <use xlink:href="#DejaVuSans-20" x="1272.75"/>
     <use xlink:href="#DejaVuSans-74" x="1304.537109"/>
     <use xlink:href="#DejaVuSans-69" x="1343.746094"/>
     <use xlink:href="#DejaVuSans-6d" x="1371.529297"/>
     <use xlink:href="#DejaVuSans-65" x="1468.941406"/>
     <use xlink:href="#DejaVuSans-20" x="1530.464844"/>
     <use xlink:href="#DejaVuSans-63" x="1562.251953"/>
     <use xlink:href="#DejaVuSans-6f" x="1617.232422"/>
     <use xlink:href="#DejaVuSans-6d" x="1678.414062"/>
     <use xlink:href="#DejaVuSans-70" x="1775.826172"/>
     <use xlink:href="#DejaVuSans-61" x="1839.302734"/>
     <use xlink:href="#DejaVuSans-72" x="1900.582031"/>
     <use xlink:href="#DejaVuSans-69" x="1941.695312"/>
     <use xlink:href="#DejaVuSans-73" x="1969.478516"/>
     <use xlink:href="#DejaVuSans-6f" x="2021.578125"/>
     <use xlink:href="#DejaVuSans-6e" x="2082.759766"/>
     <use xlink:href="#DejaVuSans-20" x="2146.138672"/>
     <use xlink:href="#DejaVuSans-77" x="2177.925781"/>
     <use xlink:href="#DejaVuSans-69" x="2259.712891"/>
     <use xlink:href="#DejaVuSans-74" x="2287.496094"/>
     <use xlink:href="#DejaVuSans-68" x="2326.705078"/>
     <use xlink:href="#DejaVuSans-20" x="2390.083984"/>
     <use xlink:href="#DejaVuSans-2d" x="2421.871094"/>
     <use xlink:href="#DejaVuSans-4f" x="2460.705078"/>
     <use xlink:href="#DejaVuSans-33" x="2539.416016"/>
     <use xlink:href="#DejaVuSans-20" x="2603.039062"/>
     <use xlink:href="#DejaVuSans-6f" x="2634.826172"/>
     <use xlink:href="#DejaVuSans-70" x="2696.007812"/>
     <use xlink:href="#DejaVuSans-74" x="2759.484375"/>
     <use xlink:href="#DejaVuSans-69" x="2798.693359"/>
     <use xlink:href="#DejaVuSans-6d" x="2826.476562"/>
     <use xlink:href="#DejaVuSans-69" x="2923.888672"/>
     <use xlink:href="#DejaVuSans-7a" x="2951.671875"/>
     <use xlink:href="#DejaVuSans-61" x="3004.162109"/>
     <use xlink:href="#DejaVuSans-74" x="3065.441406"/>
     <use xlink:href="#DejaVuSans-69" x="3104.650391"/>
     <use xlink:href="#DejaVuSans-6f" x="3132.433594"/>
     <use xlink:href="#DejaVuSans-6e" x="3193.615234"/>
    </g>
   </g>
   <g id="legend_1">
    <g id="patch_7">
     <path d="M 64.6 78.82825 
L 150.15625 78.82825 
Q 152.15625 78.82825 152.15625 76.82825 
L 152.15625 48.472 
Q 152.15625 46.472 150.15625 46.472 
L 64.6 46.472 
Q 62.6 46.472 62.6 48.472 
L 62.6 76.82825 
Q 62.6 78.82825 64.6 78.82825 
z
" style="fill: #ffffff; opacity: 0.8; stroke: #cccccc; stroke-linejoin: miter"/>
    </g>
    <g id="line2d_29">
     <path d="M 66.6 54.570437 
L 76.6 54.570437 
L 86.6 54.570437 
" style="fill: none; stroke: #ffa500; stroke-linecap: square"/>
     <g>
      <use xlink:href="#md90094b6e4" x="76.6" y="54.570437" style="fill: #ffa500; stroke: #000000; stroke-width: 0.3; stroke-linejoin: miter"/>
     </g>
    </g>
    <g id="text_18">
     <!-- std::list -->
     <g transform="translate(94.6 58.070437)scale(0.1 -0.1)">
      <defs>
       <path id="DejaVuSans-64" d="M 2906 2969 
L 2906 4863 
L 3481 4863 
L 3481 0 
L 2906 0 
L 2906 525 
Q 2725 213 2448 61 
Q 2172 -91 1784 -91 
Q 1150 -91 751 415 
Q 353 922 353 1747 
Q 353 2572 751 3078 
Q 1150 3584 1784 3584 
Q 2172 3584 2448 3432 
Q 2725 3281 2906 2969 
z
M 947 1747 
Q 947 1113 1208 752 
Q 1469 391 1925 391 
Q 2381 391 2643 752 
Q 2906 1113 2906 1747 
Q 2906 2381 2643 2742 
Q 2381 3103 1925 3103 
Q 1469 3103 1208 2742 
Q 947 2381 947 1747 
z
" transform="scale(0.015625)"/>
       <path id="DejaVuSans-3a" d="M 750 794 
L 1409 794 
L 1409 0 
L 750 0 
L 750 794 
z
M 750 3309 
L 1409 3309 
L 1409 2516 
L 750 2516 
L 750 3309 
z
" transform="scale(0.015625)"/>
      </defs>
      <use xlink:href="#DejaVuSans-73"/>
      <use xlink:href="#DejaVuSans-74" x="52.099609"/>
      <use xlink:href="#DejaVuSans-64" x="91.308594"/>
      <use xlink:href="#DejaVuSans-3a" x="154.785156"/>
      <use xlink:href="#DejaVuSans-3a" x="188.476562"/>
      <use xlink:href="#DejaVuSans-6c" x="222.167969"/>
      <use xlink:href="#DejaVuSans-69" x="249.951172"/>
      <use xlink:href="#DejaVuSans-73" x="277.734375"/>
      <use xlink:href="#DejaVuSans-74" x="329.833984"/>
     </g>
    </g>
    <g id="line2d_30">
     <path d="M 66.6 69.248562 
L 76.6 69.248562 
L 86.6 69.248562 
" style="fill: none; stroke: #008000; stroke-linecap: square"/>
     <g>
      <use xlink:href="#m3a49b20cd9" x="76.6" y="69.248562" style="fill: #008000; stroke: #000000; stroke-width: 0.3; stroke-linejoin: miter"/>
     </g>
    </g>
    <g id="text_19">
     <!-- std::deque -->
     <g transform="translate(94.6 72.748562)scale(0.1 -0.1)">
      <defs>
       <path id="DejaVuSans-71" d="M 947 1747 
Q 947 1113 1208 752 
Q 1469 391 1925 391 
Q 2381 391 2643 752 
Q 2906 1113 2906 1747 
Q 2906 2381 2643 2742 
Q 2381 3103 1925 3103 
Q 1469 3103 1208 2742 
Q 947 2381 947 1747 
z
M 2906 525 
Q 2725 213 2448 61 
Q 2172 -91 1784 -91 
Q 1150 -91 751 415 
Q 353 922 353 1747 
Q 353 2572 751 3078 
Q 1150 3584 1784 3584 
Q 2172 3584 2448 3432 
Q 2725 3281 2906 2969 
L 2906 3500 
L 3481 3500 
L 3481 -1331 
L 2906 -1331 
L 2906 525 
z
" transform="scale(0.015625)"/>
      </defs>
      <use xlink:href="#DejaVuSans-73"/>
      <use xlink:href="#DejaVuSans-74" x="52.099609"/>
      <use xlink:href="#DejaVuSans-64" x="91.308594"/>
      <use xlink:href="#DejaVuSans-3a" x="154.785156"/>
      <use xlink:href="#DejaVuSans-3a" x="188.476562"/>
      <use xlink:href="#DejaVuSans-64" x="222.167969"/>
      <use xlink:href="#DejaVuSans-65" x="285.644531"/>
      <use xlink:href="#DejaVuSans-71" x="347.167969"/>
      <use xlink:href="#DejaVuSans-75" x="410.644531"/>
      <use xlink:href="#DejaVuSans-65" x="474.023438"/>
     </g>
    </g>
   </g>
  </g>
 </g>
 <defs>
  <clipPath id="p10fa2cd63e">
   <rect x="57.6" y="41.472" width="357.12" height="266.112"/>
  </clipPath>
 </defs>
</svg>
